<svg width="300" height="289" viewBox="0 0 300 289" fill="none" xmlns="http://www.w3.org/2000/svg">
<path d="M91.0843 1.19917C92.0438 0.789708 93.0085 0.389944 93.9781 0H206.022C206.992 0.389944 207.956 0.789708 208.916 1.19917H91.0843Z" fill="#F27370"/>
<path d="M68.5382 13.1909C69.1632 12.7866 69.7915 12.3869 70.4229 11.9917H229.577C230.209 12.3869 230.837 12.7866 231.462 13.1909H68.5382Z" fill="#F27370"/>
<path d="M52.4583 25.1826C52.9291 24.78 53.4026 24.3802 53.8785 23.9834H246.122C246.597 24.3802 247.071 24.78 247.542 25.1826H52.4583Z" fill="#F27370"/>
<path d="M39.962 37.1743C40.3352 36.7725 40.7107 36.3728 41.0882 35.9751H258.912C259.289 36.3728 259.665 36.7725 260.038 37.1743H39.962Z" fill="#F27370"/>
<path d="M29.9287 49.166C30.2305 48.7647 30.5342 48.365 30.8399 47.9668H269.16C269.466 48.365 269.77 48.7647 270.071 49.166H29.9287Z" fill="#F27370"/>
<path d="M21.7853 61.1577C22.0301 60.7567 22.2768 60.357 22.5253 59.9585H277.475C277.723 60.357 277.97 60.7567 278.215 61.1577H21.7853Z" fill="#F27370"/>
<path d="M15.195 73.1494C15.3919 72.7486 15.5906 72.3489 15.791 71.9502H284.209C284.409 72.3489 284.608 72.7486 284.805 73.1494H15.195Z" fill="#F27370"/>
<path d="M9.94351 85.1411C10.0983 84.7405 10.2548 84.3408 10.4129 83.9419H289.587C289.745 84.3408 289.902 84.7405 290.057 85.1411H9.94351Z" fill="#F27370"/>
<path d="M5.887 97.1328C6.0037 96.7324 6.12202 96.3326 6.24197 95.9336H293.758C293.878 96.3326 293.996 96.7324 294.113 97.1328H5.887Z" fill="#F27370"/>
<path d="M2.92667 109.124C3.00802 108.724 3.09098 108.324 3.17552 107.925H296.824C296.909 108.324 296.992 108.724 297.073 109.124H2.92667Z" fill="#F27370"/>
<path d="M0.994055 121.116C1.04197 120.716 1.09147 120.316 1.14254 119.917H298.857C298.909 120.316 298.958 120.716 299.006 121.116H0.994055Z" fill="#F27370"/>
<path d="M0.0424838 133.108C0.0582427 132.708 0.075572 132.308 0.0944656 131.909H299.906C299.924 132.308 299.942 132.708 299.958 133.108H0.0424838Z" fill="#F27370"/>
<path d="M0.0424838 145.1C0.0267565 144.7 0.0125933 144.301 0 143.9H300C299.987 144.301 299.973 144.7 299.958 145.1H0.0424838Z" fill="#F27370"/>
<path d="M0.994055 157.091C0.946251 156.692 0.900019 156.292 0.855364 155.892H299.145C299.1 156.292 299.054 156.692 299.006 157.091H0.994055Z" fill="#F27370"/>
<path d="M2.92667 169.083C2.84555 168.684 2.76602 168.284 2.68808 167.884H297.312C297.234 168.284 297.154 168.684 297.073 169.083H2.92667Z" fill="#F27370"/>
<path d="M5.887 181.075C5.7707 180.676 5.65603 180.276 5.54297 179.876H294.457C294.344 180.276 294.229 180.676 294.113 181.075H5.887Z" fill="#F27370"/>
<path d="M9.94351 193.066C9.78935 192.667 9.63684 192.268 9.48601 191.867H290.514C290.363 192.268 290.211 192.667 290.057 193.066H9.94351Z" fill="#F27370"/>
<path d="M15.195 205.058C14.9991 204.659 14.8049 204.26 14.6125 203.859H285.388C285.195 204.26 285.001 204.659 284.805 205.058H15.195Z" fill="#F27370"/>
<path d="M21.7853 217.05C21.5419 216.651 21.3003 216.252 21.0606 215.851H278.939C278.7 216.252 278.458 216.651 278.215 217.05H21.7853Z" fill="#F27370"/>
<path d="M29.9287 229.041C29.6293 228.643 29.3317 228.244 29.0362 227.842H270.964C270.668 228.244 270.371 228.643 270.071 229.041H29.9287Z" fill="#F27370"/>
<path d="M39.962 241.033C39.5925 240.635 39.2252 240.236 38.86 239.834H261.14C260.775 240.236 260.407 240.635 260.038 241.033H39.962Z" fill="#F27370"/>
<path d="M52.4583 253.025C51.994 252.628 51.5322 252.228 51.0728 251.826H248.927C248.468 252.228 248.006 252.628 247.542 253.025H52.4583Z" fill="#F27370"/>
<path d="M68.5382 265.017C67.9268 264.621 67.3185 264.221 66.7133 263.817H233.287C232.682 264.221 232.073 264.621 231.462 265.017H68.5382Z" fill="#F27370"/>
<path d="M91.0843 277.008C90.1683 276.617 89.257 276.218 88.3504 275.809H211.65C210.743 276.218 209.832 276.617 208.916 277.008H91.0843Z" fill="#F27370"/>
<path d="M169.074 287.801C162.827 288.592 156.461 289 150 289C143.539 289 137.173 288.592 130.926 287.801H169.074Z" fill="#F27370"/>
</svg>
