<svg width="300" height="300" viewBox="0 0 300 300" fill="none" xmlns="http://www.w3.org/2000/svg">
<path fill-rule="evenodd" clip-rule="evenodd" d="M150 104.305C124.763 104.305 104.305 124.763 104.305 150C104.305 175.237 124.763 195.695 150 195.695C175.237 195.695 195.695 175.237 195.695 150C195.695 124.763 175.237 104.305 150 104.305ZM106.291 150C106.291 125.86 125.86 106.291 150 106.291C174.14 106.291 193.709 125.86 193.709 150C193.709 174.14 174.14 193.709 150 193.709C125.86 193.709 106.291 174.14 106.291 150Z" fill="#F27370"/>
<path fill-rule="evenodd" clip-rule="evenodd" d="M150 96.8543C120.648 96.8543 96.8543 120.648 96.8543 150C96.8543 179.352 120.648 203.146 150 203.146C179.352 203.146 203.146 179.352 203.146 150C203.146 120.648 179.352 96.8543 150 96.8543ZM98.8411 150C98.8411 121.746 121.746 98.8411 150 98.8411C178.254 98.8411 201.159 121.746 201.159 150C201.159 178.254 178.254 201.159 150 201.159C121.746 201.159 98.8411 178.254 98.8411 150Z" fill="#F27370"/>
<path fill-rule="evenodd" clip-rule="evenodd" d="M89.404 150C89.404 116.534 116.534 89.404 150 89.404C183.466 89.404 210.596 116.534 210.596 150C210.596 183.466 183.466 210.596 150 210.596C116.534 210.596 89.404 183.466 89.404 150ZM150 91.3907C117.631 91.3907 91.3907 117.631 91.3907 150C91.3907 182.369 117.631 208.609 150 208.609C182.369 208.609 208.609 182.369 208.609 150C208.609 117.631 182.369 91.3907 150 91.3907Z" fill="#F27370"/>
<path fill-rule="evenodd" clip-rule="evenodd" d="M81.9536 150C81.9536 112.419 112.419 81.9536 150 81.9536C187.581 81.9536 218.046 112.419 218.046 150C218.046 187.581 187.581 218.046 150 218.046C112.419 218.046 81.9536 187.581 81.9536 150ZM150 83.9404C113.516 83.9404 83.9404 113.516 83.9404 150C83.9404 186.484 113.516 216.06 150 216.06C186.484 216.06 216.06 186.484 216.06 150C216.06 113.516 186.484 83.9404 150 83.9404Z" fill="#F27370"/>
<path fill-rule="evenodd" clip-rule="evenodd" d="M74.5033 150C74.5033 108.304 108.304 74.5033 150 74.5033C191.696 74.5033 225.497 108.304 225.497 150C225.497 191.696 191.696 225.497 150 225.497C108.304 225.497 74.5033 191.696 74.5033 150ZM150 76.4901C109.402 76.4901 76.4901 109.402 76.4901 150C76.4901 190.598 109.402 223.51 150 223.51C190.598 223.51 223.51 190.598 223.51 150C223.51 109.402 190.598 76.4901 150 76.4901Z" fill="#F27370"/>
<path fill-rule="evenodd" clip-rule="evenodd" d="M150 67.053C104.19 67.053 67.053 104.19 67.053 150C67.053 195.81 104.19 232.947 150 232.947C195.81 232.947 232.947 195.81 232.947 150C232.947 104.19 195.81 67.053 150 67.053ZM69.0397 150C69.0397 105.287 105.287 69.0397 150 69.0397C194.713 69.0397 230.96 105.287 230.96 150C230.96 194.713 194.713 230.96 150 230.96C105.287 230.96 69.0397 194.713 69.0397 150Z" fill="#F27370"/>
<path fill-rule="evenodd" clip-rule="evenodd" d="M59.6026 150C59.6026 100.075 100.075 59.6026 150 59.6026C199.925 59.6026 240.397 100.075 240.397 150C240.397 199.925 199.925 240.397 150 240.397C100.075 240.397 59.6026 199.925 59.6026 150ZM150 61.5894C101.172 61.5894 61.5894 101.172 61.5894 150C61.5894 198.828 101.172 238.411 150 238.411C198.828 238.411 238.411 198.828 238.411 150C238.411 101.172 198.828 61.5894 150 61.5894Z" fill="#F27370"/>
<path fill-rule="evenodd" clip-rule="evenodd" d="M150 52.1523C95.9602 52.1523 52.1523 95.9602 52.1523 150C52.1523 204.04 95.9602 247.848 150 247.848C204.04 247.848 247.848 204.04 247.848 150C247.848 95.9602 204.04 52.1523 150 52.1523ZM54.1391 150C54.1391 97.0575 97.0575 54.1391 150 54.1391C202.943 54.1391 245.861 97.0575 245.861 150C245.861 202.943 202.943 245.861 150 245.861C97.0575 245.861 54.1391 202.943 54.1391 150Z" fill="#F27370"/>
<path fill-rule="evenodd" clip-rule="evenodd" d="M44.702 150C44.702 91.8455 91.8455 44.702 150 44.702C208.154 44.702 255.298 91.8455 255.298 150C255.298 208.154 208.154 255.298 150 255.298C91.8455 255.298 44.702 208.154 44.702 150ZM150 46.6887C92.9428 46.6887 46.6887 92.9428 46.6887 150C46.6887 207.057 92.9428 253.311 150 253.311C207.057 253.311 253.311 207.057 253.311 150C253.311 92.9428 207.057 46.6887 150 46.6887Z" fill="#F27370"/>
<path fill-rule="evenodd" clip-rule="evenodd" d="M150 37.2517C87.7308 37.2517 37.2517 87.7308 37.2517 150C37.2517 212.269 87.7308 262.748 150 262.748C212.269 262.748 262.748 212.269 262.748 150C262.748 87.7308 212.269 37.2517 150 37.2517ZM39.2384 150C39.2384 88.8281 88.8281 39.2384 150 39.2384C211.172 39.2384 260.762 88.8281 260.762 150C260.762 211.172 211.172 260.762 150 260.762C88.8281 260.762 39.2384 211.172 39.2384 150Z" fill="#F27370"/>
<path fill-rule="evenodd" clip-rule="evenodd" d="M29.8013 150C29.8013 83.6161 83.6161 29.8013 150 29.8013C216.384 29.8013 270.199 83.6161 270.199 150C270.199 216.384 216.384 270.199 150 270.199C83.6161 270.199 29.8013 216.384 29.8013 150ZM150 31.7881C84.7134 31.7881 31.7881 84.7134 31.7881 150C31.7881 215.287 84.7134 268.212 150 268.212C215.287 268.212 268.212 215.287 268.212 150C268.212 84.7134 215.287 31.7881 150 31.7881Z" fill="#F27370"/>
<path fill-rule="evenodd" clip-rule="evenodd" d="M150 22.351C79.5014 22.351 22.351 79.5014 22.351 150C22.351 220.499 79.5014 277.649 150 277.649C220.499 277.649 277.649 220.499 277.649 150C277.649 79.5014 220.499 22.351 150 22.351ZM24.3377 150C24.3377 80.5987 80.5987 24.3377 150 24.3377C219.401 24.3377 275.662 80.5987 275.662 150C275.662 219.401 219.401 275.662 150 275.662C80.5987 275.662 24.3377 219.401 24.3377 150Z" fill="#F27370"/>
<path fill-rule="evenodd" clip-rule="evenodd" d="M14.9007 150C14.9007 75.3867 75.3867 14.9007 150 14.9007C224.613 14.9007 285.099 75.3867 285.099 150C285.099 224.613 224.613 285.099 150 285.099C75.3867 285.099 14.9007 224.613 14.9007 150ZM150 16.8874C76.484 16.8874 16.8874 76.484 16.8874 150C16.8874 223.516 76.484 283.113 150 283.113C223.516 283.113 283.113 223.516 283.113 150C283.113 76.484 223.516 16.8874 150 16.8874Z" fill="#F27370"/>
<path fill-rule="evenodd" clip-rule="evenodd" d="M150 7.45033C71.272 7.45033 7.45033 71.272 7.45033 150C7.45033 228.728 71.272 292.55 150 292.55C228.728 292.55 292.55 228.728 292.55 150C292.55 71.272 228.728 7.45033 150 7.45033ZM9.43709 150C9.43709 72.3692 72.3692 9.43709 150 9.43709C227.631 9.43709 290.563 72.3692 290.563 150C290.563 227.631 227.631 290.563 150 290.563C72.3692 290.563 9.43709 227.631 9.43709 150Z" fill="#F27370"/>
<path fill-rule="evenodd" clip-rule="evenodd" d="M0 150C0 67.1573 67.1573 0 150 0C232.843 0 300 67.1573 300 150C300 232.843 232.843 300 150 300C67.1573 300 0 232.843 0 150ZM150 1.98676C68.2545 1.98676 1.98676 68.2545 1.98676 150C1.98676 231.745 68.2545 298.013 150 298.013C231.745 298.013 298.013 231.745 298.013 150C298.013 68.2545 231.745 1.98676 150 1.98676Z" fill="#F27370"/>
</svg>
