<svg width="91" height="152" viewBox="0 0 91 152" fill="none" xmlns="http://www.w3.org/2000/svg">
<path d="M75.596 1.33732L75.2296 1.6776L75.2317 1.6798L75.2388 1.68748L75.2677 1.71886C75.2934 1.74683 75.3318 1.7888 75.3821 1.84415C75.4826 1.95484 75.6307 2.11905 75.8194 2.33188C76.1968 2.75758 76.7368 3.37763 77.3852 4.15293C78.6825 5.70408 80.4113 7.87397 82.139 10.3503C83.8677 12.8281 85.5888 15.6033 86.876 18.3658C88.1667 21.1357 89.0021 23.8527 89.0021 26.2248C89.0021 30.9491 85.6935 34.5473 82.1826 38.3283L82.1135 38.4027C78.6919 42.0873 75.096 45.9596 75.096 51.1123C75.096 56.2649 78.6919 60.1372 82.1135 63.8218L82.1826 63.8962C85.6935 67.6772 89.0021 71.2754 89.0021 75.9997C89.0021 80.724 85.6935 84.3223 82.1826 88.1032L82.1135 88.1776C78.6919 91.8623 75.096 95.7345 75.096 100.887C75.096 106.04 78.6919 109.912 82.1135 113.597L82.1826 113.671C85.6935 117.452 89.0021 121.05 89.0021 125.775C89.0021 128.147 88.1667 130.864 86.876 133.634C85.5888 136.396 83.8677 139.171 82.1389 141.649C80.4113 144.125 78.6825 146.295 77.3852 147.847C76.7368 148.622 76.1968 149.242 75.8194 149.668C75.6307 149.88 75.4826 150.045 75.3821 150.155C75.3318 150.211 75.2934 150.253 75.2677 150.281L75.2388 150.312L75.23 150.321L75.596 150.662L75.9283 150.971C75.9625 151.002 75.9626 151.002 75.9626 151.002L75.9653 150.999L75.9733 150.991L76.004 150.957C76.031 150.928 76.0706 150.885 76.1222 150.828C76.2253 150.714 76.3761 150.547 76.5676 150.331C76.9507 149.899 77.497 149.272 78.1523 148.488C79.4625 146.922 81.2102 144.728 82.9591 142.221C84.7068 139.716 86.4623 136.889 87.7824 134.056C89.0991 131.23 90.0021 128.358 90.0021 125.775C90.0021 120.622 86.4061 116.75 82.9845 113.065L82.9154 112.991C79.4045 109.21 76.096 105.612 76.096 100.887C76.096 96.1629 79.4045 92.5646 82.9154 88.7837L82.9845 88.7093C86.4061 85.0247 90.0021 81.1524 90.0021 75.9997C90.0021 70.8471 86.4061 66.9748 82.9845 63.2901L82.9154 63.2158C79.4045 59.4348 76.096 55.8366 76.096 51.1123C76.096 46.388 79.4045 42.7897 82.9154 39.0087L82.9845 38.9344C86.4062 35.2497 90.0021 31.3774 90.0021 26.2248C90.0021 23.6411 89.0991 20.7692 87.7824 17.9435C86.4623 15.1103 84.7069 12.2832 82.9591 9.77809C81.2102 7.27149 79.4625 5.07795 78.1523 3.51139C77.497 2.72784 76.9507 2.10047 76.5676 1.66846C76.3761 1.45243 76.2253 1.28522 76.1222 1.1717C76.0706 1.11494 76.031 1.0716 76.0041 1.0423L75.9733 1.00894L75.9632 0.998014C75.9632 0.998014 75.9624 0.997093 75.596 1.33732Z" fill="#F27370"/>
<path d="M50.5645 1.33732L50.1982 1.6776L50.2002 1.6798L50.2073 1.68748L50.2362 1.71886C50.2619 1.74683 50.3003 1.7888 50.3506 1.84414C50.4512 1.95484 50.5992 2.11905 50.7879 2.33188C51.1654 2.75758 51.7054 3.37763 52.3538 4.15293C53.6511 5.70408 55.3798 7.87397 57.1075 10.3503C58.8363 12.8281 60.5573 15.6033 61.8446 18.3658C63.1353 21.1357 63.9706 23.8527 63.9706 26.2248C63.9706 30.9491 60.6621 34.5473 57.1512 38.3283L57.0821 38.4027C53.6604 42.0873 50.0645 45.9596 50.0645 51.1123C50.0645 56.2649 53.6604 60.1372 57.0821 63.8218L57.1512 63.8962C60.6621 67.6772 63.9706 71.2754 63.9706 75.9997C63.9706 80.724 60.6621 84.3223 57.1512 88.1032L57.0821 88.1776C53.6604 91.8623 50.0645 95.7345 50.0645 100.887C50.0645 106.04 53.6604 109.912 57.0821 113.597L57.1512 113.671C60.6621 117.452 63.9706 121.05 63.9706 125.775C63.9706 128.147 63.1353 130.864 61.8446 133.634C60.5573 136.396 58.8363 139.171 57.1075 141.649C55.3798 144.125 53.6511 146.295 52.3538 147.847C51.7054 148.622 51.1654 149.242 50.7879 149.668C50.5992 149.88 50.4512 150.045 50.3506 150.155C50.3003 150.211 50.2619 150.253 50.2362 150.281L50.2073 150.312L50.1985 150.321L50.5645 150.662C50.9309 151.002 50.9312 151.002 50.9312 151.002L50.9339 150.999L50.9419 150.991L50.9726 150.957C50.9995 150.928 51.0392 150.885 51.0908 150.828C51.1939 150.714 51.3446 150.547 51.5362 150.331C51.9192 149.899 52.4656 149.272 53.1209 148.488C54.431 146.922 56.1788 144.728 57.9276 142.221C59.6754 139.716 61.4309 136.889 62.751 134.056C64.0677 131.23 64.9706 128.358 64.9706 125.775C64.9706 120.622 61.3747 116.75 57.953 113.065L57.884 112.991C54.3731 109.21 51.0645 105.612 51.0645 100.887C51.0645 96.1629 54.3731 92.5646 57.884 88.7837L57.953 88.7093C61.3747 85.0247 64.9706 81.1524 64.9706 75.9997C64.9706 70.8471 61.3747 66.9748 57.953 63.2901L57.884 63.2158C54.3731 59.4348 51.0645 55.8366 51.0645 51.1123C51.0645 46.3879 54.3731 42.7897 57.884 39.0087L57.9531 38.9344C61.3747 35.2497 64.9706 31.3774 64.9706 26.2248C64.9706 23.6411 64.0677 20.7692 62.751 17.9435C61.4309 15.1103 59.6754 12.2832 57.9276 9.77809C56.1788 7.27149 54.431 5.07795 53.1209 3.51139C52.4656 2.72784 51.9192 2.10046 51.5362 1.66845C51.3446 1.45243 51.1939 1.28522 51.0908 1.1717C51.0392 1.11494 50.9995 1.0716 50.9726 1.0423L50.9419 1.00894L50.9339 1.0003L50.9318 0.998013C50.9318 0.998013 50.9309 0.997092 50.5645 1.33732Z" fill="#F27370"/>
<path d="M25.1669 1.67759L25.5333 1.33732C25.8997 0.997091 25.8999 0.99738 25.8999 0.99738L25.9027 1.0003L25.9106 1.00894L25.9414 1.0423C25.9683 1.0716 26.008 1.11494 26.0595 1.1717C26.1627 1.28522 26.3134 1.45243 26.5049 1.66845C26.888 2.10046 27.4344 2.72784 28.0897 3.51139C29.3998 5.07795 31.1476 7.27149 32.8964 9.77809C34.6442 12.2832 36.3996 15.1103 37.7198 17.9435C39.0365 20.7692 39.9394 23.6411 39.9394 26.2248C39.9394 31.3774 36.3435 35.2497 32.9218 38.9344L32.8527 39.0087C29.3418 42.7897 26.0333 46.3879 26.0333 51.1123C26.0333 55.8366 29.3418 59.4348 32.8527 63.2158L32.9218 63.2901C36.3435 66.9748 39.9394 70.8471 39.9394 75.9997C39.9394 81.1524 36.3435 85.0247 32.9218 88.7093L32.8527 88.7837C29.3418 92.5646 26.0333 96.1629 26.0333 100.887C26.0333 105.612 29.3418 109.21 32.8527 112.991L32.9218 113.065C36.3435 116.75 39.9394 120.622 39.9394 125.775C39.9394 128.358 39.0365 131.23 37.7198 134.056C36.3996 136.889 34.6442 139.716 32.8964 142.221C31.1476 144.728 29.3998 146.922 28.0897 148.488C27.4344 149.272 26.888 149.899 26.5049 150.331C26.3134 150.547 26.1627 150.714 26.0595 150.828C26.008 150.885 25.9683 150.928 25.9414 150.957L25.9106 150.991L25.9005 151.001C25.9005 151.001 25.8997 151.002 25.5333 150.662L25.1669 150.322L25.169 150.32L25.1761 150.312L25.205 150.281L25.2238 150.26L25.2609 150.219C25.2782 150.201 25.2977 150.179 25.3194 150.155C25.4199 150.045 25.568 149.88 25.7567 149.668C26.1341 149.242 26.6742 148.622 27.3226 147.847C28.6198 146.295 30.3486 144.125 32.0763 141.649C33.805 139.171 35.5261 136.396 36.8133 133.634C38.104 130.864 38.9394 128.147 38.9394 125.775C38.9394 121.05 35.6308 117.452 32.1199 113.671L32.0508 113.597C28.6292 109.912 25.0333 106.04 25.0333 100.887C25.0333 95.7345 28.6292 91.8623 32.0508 88.1776L32.1199 88.1032C35.6308 84.3223 38.9394 80.724 38.9394 75.9997C38.9394 71.2754 35.6308 67.6772 32.1199 63.8962L32.0509 63.8218C28.6292 60.1372 25.0333 56.2649 25.0333 51.1123C25.0333 45.9596 28.6292 42.0873 32.0509 38.4027L32.1199 38.3283C35.6308 34.5473 38.9394 30.9491 38.9394 26.2248C38.9394 23.8527 38.104 21.1357 36.8133 18.3658C35.5261 15.6033 33.805 12.8281 32.0763 10.3503C30.3486 7.87397 28.6198 5.70408 27.3226 4.15293C26.6742 3.37763 26.1341 2.75758 25.7567 2.33188C25.568 2.11905 25.42 1.95484 25.3194 1.84414C25.2691 1.7888 25.2307 1.74683 25.205 1.71886L25.1761 1.68748L25.1669 1.67759Z" fill="#F27370"/>
<path d="M0.502647 1.33731L0.136299 1.67759L0.145439 1.68747L0.174347 1.71886C0.200043 1.74683 0.238457 1.7888 0.288742 1.84414C0.389313 1.95484 0.537346 2.11905 0.726051 2.33188C1.1035 2.75758 1.64352 3.37762 2.29192 4.15292C3.58918 5.70408 5.31793 7.87397 7.04563 10.3503C8.77438 12.8281 10.4955 15.6033 11.7827 18.3658C13.0734 21.1357 13.9087 23.8527 13.9087 26.2248C13.9087 30.9491 10.6002 34.5473 7.08929 38.3283L7.02022 38.4027C3.59855 42.0873 0.00264543 45.9596 0.00264521 51.1123C0.00264498 56.2649 3.59855 60.1372 7.02022 63.8218L7.08929 63.8962C10.6002 67.6772 13.9087 71.2754 13.9087 75.9997C13.9087 80.724 10.6002 84.3223 7.08929 88.1032L7.0202 88.1776C3.59854 91.8623 0.00264326 95.7345 0.00264303 100.887C0.00264281 106.04 3.59854 109.912 7.0202 113.597L7.08929 113.671C10.6002 117.452 13.9087 121.05 13.9087 125.775C13.9087 128.147 13.0734 130.864 11.7827 133.634C10.4955 136.396 8.77437 139.171 7.04563 141.649C5.31793 144.125 3.58917 146.295 2.29192 147.847C1.64352 148.622 1.10349 149.242 0.726045 149.668C0.537339 149.88 0.389306 150.045 0.288736 150.155C0.23845 150.211 0.200036 150.253 0.17434 150.281L0.145433 150.312L0.13833 150.32L0.136659 150.321L0.502641 150.662C0.869035 151.002 0.869302 151.002 0.869302 151.002L0.87201 150.999L0.879998 150.991L0.910722 150.957C0.937646 150.928 0.977319 150.885 1.02889 150.828C1.13201 150.714 1.28275 150.547 1.47428 150.331C1.85733 149.899 2.40371 149.272 3.05901 148.488C4.36915 146.922 6.11692 144.728 7.86575 142.221C9.61352 139.716 11.369 136.889 12.6891 134.056C14.0058 131.23 14.9087 128.358 14.9087 125.775C14.9087 120.622 11.3128 116.75 7.89115 113.065L7.82209 112.991C4.31121 109.21 1.00264 105.611 1.00264 100.887C1.00264 96.1629 4.31121 92.5646 7.82209 88.7837L7.89115 88.7093C11.3128 85.0247 14.9087 81.1524 14.9087 75.9997C14.9087 70.8471 11.3128 66.9748 7.89115 63.2901L7.82209 63.2158C4.31121 59.4348 1.00265 55.8366 1.00265 51.1123C1.00265 46.3879 4.31121 42.7897 7.82209 39.0087L7.89117 38.9344C11.3128 35.2497 14.9087 31.3774 14.9087 26.2248C14.9087 23.641 14.0058 20.7692 12.6891 17.9435C11.369 15.1103 9.61352 12.2832 7.86575 9.77809C6.11693 7.27149 4.36916 5.07794 3.05902 3.51139C2.40372 2.72784 1.85734 2.10046 1.47429 1.66845C1.28276 1.45243 1.13202 1.28521 1.02889 1.1717C0.977325 1.11494 0.937653 1.0716 0.910728 1.0423L0.880005 1.00894L0.872017 1.0003L0.869896 0.998011C0.869896 0.998011 0.869041 0.99709 0.502647 1.33731Z" fill="#F27370"/>
</svg>
