<svg width="80" height="142" viewBox="0 0 80 142" fill="none" xmlns="http://www.w3.org/2000/svg">
<path d="M1.46713 117.878C1.28381 117.686 0.983958 117.672 0.783517 117.841C0.579084 117.564 0.411092 117.262 0.283811 116.943C0.532939 116.861 0.678866 116.599 0.612131 116.342C0.538522 116.058 0.5 115.763 0.5 115.463V113.732C0.5 113.455 0.276142 113.232 0 113.232V110.769C0.276142 110.769 0.5 110.545 0.5 110.269L0.5 106.807C0.5 106.531 0.276142 106.307 0 106.307V103.844C0.276143 103.844 0.5 103.62 0.5 103.344L0.5 99.8818C0.5 99.6056 0.276143 99.3818 0 99.3818V96.9193C0.276143 96.9193 0.5 96.6955 0.5 96.4193V94.6881C0.5 94.0194 0.67738 93.419 0.976734 92.9117C1.11165 92.6831 1.04385 92.391 0.82715 92.244C1.49794 91.3802 2.50781 90.8182 3.59547 90.7035C3.60612 90.9651 3.81864 91.1767 4.08402 91.1826C4.67288 91.1956 5.2766 91.3613 5.8449 91.7138L7.43405 92.6996C7.66872 92.8451 7.97695 92.7729 8.12251 92.5382L10.451 93.9826C10.3055 94.2172 10.3777 94.5255 10.6124 94.671L13.7907 96.6425C14.0253 96.788 14.3336 96.7158 14.4791 96.4811L16.8076 97.9255C16.6621 98.1601 16.7343 98.4684 16.969 98.6139L20.1473 100.585C20.382 100.731 20.6902 100.659 20.8357 100.424L23.1643 101.868C23.0187 102.103 23.0909 102.411 23.3256 102.557L26.5039 104.528C26.7386 104.674 27.0468 104.602 27.1924 104.367L29.5209 105.811C29.3753 106.046 29.4476 106.354 29.6822 106.5L32.8605 108.471C33.0952 108.617 33.4034 108.545 33.549 108.31L35.8775 109.754C35.7319 109.989 35.8042 110.297 36.0388 110.443L37.628 111.428C37.9877 111.651 38.3713 111.819 38.7668 111.932C39.0324 112.008 39.309 111.854 39.3846 111.588C39.3875 111.578 39.3901 111.568 39.3923 111.558C39.795 111.62 40.205 111.62 40.6077 111.558C40.6099 111.568 40.6125 111.578 40.6154 111.588C40.691 111.854 40.9676 112.008 41.2332 111.932C41.6287 111.819 42.0123 111.651 42.372 111.428L43.9612 110.443C44.1958 110.297 44.2681 109.989 44.1225 109.754L46.451 108.31C46.5966 108.545 46.9048 108.617 47.1395 108.471L50.3178 106.5C50.5524 106.354 50.6247 106.046 50.4791 105.811L52.8076 104.367C52.9532 104.602 53.2614 104.674 53.4961 104.528L56.6744 102.557C56.9091 102.411 56.9813 102.103 56.8357 101.868L59.1643 100.424C59.3098 100.659 59.618 100.731 59.8527 100.585L63.031 98.6139C63.2657 98.4684 63.3379 98.1601 63.1924 97.9255L65.5209 96.4811C65.6664 96.7158 65.9747 96.788 66.2093 96.6425L69.3876 94.671C69.6223 94.5255 69.6945 94.2172 69.549 93.9826L71.8775 92.5382C72.023 92.7729 72.3313 92.8451 72.5659 92.6996L74.1551 91.7138C74.7234 91.3613 75.3271 91.1956 75.916 91.1826C76.1814 91.1767 76.3939 90.9651 76.4045 90.7035C77.4922 90.8182 78.5021 91.3802 79.1729 92.244C78.9561 92.391 78.8884 92.6831 79.0233 92.9117C79.3226 93.419 79.5 94.0194 79.5 94.6881V96.4193C79.5 96.6955 79.7239 96.9193 80 96.9193V99.3818C79.7239 99.3818 79.5 99.6056 79.5 99.8818V103.344C79.5 103.62 79.7239 103.844 80 103.844V106.307C79.7239 106.307 79.5 106.531 79.5 106.807V110.269C79.5 110.545 79.7239 110.769 80 110.769V113.232C79.7239 113.232 79.5 113.455 79.5 113.732V115.463C79.5 115.763 79.4615 116.058 79.3879 116.342C79.3211 116.599 79.4671 116.861 79.7162 116.943C79.5889 117.262 79.4209 117.564 79.2165 117.841C79.016 117.672 78.7162 117.686 78.5329 117.878C78.3307 118.09 78.1003 118.279 77.8449 118.437L76.0449 119.554C75.8102 119.699 75.738 120.007 75.8836 120.242L73.1333 121.948C72.9878 121.713 72.6796 121.641 72.4449 121.787L68.8449 124.02C68.6102 124.165 68.538 124.473 68.6836 124.708L65.9333 126.414C65.7878 126.179 65.4796 126.107 65.2449 126.253L61.6449 128.486C61.4102 128.631 61.338 128.939 61.4836 129.174L58.7333 130.88C58.5878 130.645 58.2796 130.573 58.0449 130.719L54.4449 132.952C54.2102 133.097 54.138 133.405 54.2836 133.64L51.5333 135.346C51.3878 135.111 51.0796 135.039 50.8449 135.185L47.2449 137.418C47.0102 137.563 46.938 137.872 47.0836 138.106L44.3333 139.812C44.1878 139.577 43.8796 139.505 43.6449 139.651L41.8449 140.767C41.5649 140.941 41.2666 141.072 40.9592 141.159C40.7038 141.232 40.5516 141.491 40.6077 141.747C40.205 141.808 39.795 141.808 39.3923 141.747C39.4484 141.491 39.2962 141.232 39.0408 141.159C38.7334 141.072 38.4351 140.941 38.1551 140.767L36.3551 139.651C36.1204 139.505 35.8122 139.577 35.6666 139.812L32.9164 138.106C33.062 137.872 32.9898 137.563 32.7551 137.418L29.1551 135.185C28.9204 135.039 28.6122 135.111 28.4667 135.346L25.7164 133.64C25.862 133.405 25.7898 133.097 25.5551 132.952L21.9551 130.719C21.7204 130.573 21.4122 130.645 21.2667 130.88L18.5164 129.174C18.662 128.939 18.5898 128.631 18.3551 128.486L14.7551 126.253C14.5204 126.107 14.2122 126.179 14.0666 126.414L11.3164 124.708C11.462 124.473 11.3898 124.165 11.1551 124.02L7.5551 121.787C7.32044 121.641 7.01221 121.713 6.86665 121.948L4.11644 120.242C4.262 120.007 4.18977 119.699 3.9551 119.554L2.1551 118.437C1.89975 118.279 1.66933 118.09 1.46713 117.878ZM1.46713 72.8784C1.28381 72.6861 0.983959 72.6718 0.783517 72.8407C0.579084 72.5641 0.411092 72.2622 0.283811 71.9427C0.53294 71.8614 0.678867 71.599 0.612131 71.3419C0.538523 71.0583 0.500001 70.7633 0.500001 70.4628V68.7315C0.500001 68.4554 0.276143 68.2315 0 68.2315V65.7691C0.276143 65.7691 0.500001 65.5452 0.500001 65.2691L0.500001 61.8067C0.500001 61.5305 0.276143 61.3067 0 61.3067V58.8442C0.276143 58.8442 0.500001 58.6204 0.500001 58.3442L0.500001 54.8818C0.500001 54.6056 0.276143 54.3818 0 54.3818V51.9193C0.276143 51.9193 0.500001 51.6955 0.500001 51.4193V49.6881C0.500001 49.0194 0.67738 48.419 0.976734 47.9117C1.11165 47.6831 1.04385 47.391 0.82715 47.244C1.49794 46.3802 2.50781 45.8182 3.59547 45.7035C3.60612 45.9651 3.81864 46.1767 4.08402 46.1826C4.67288 46.1956 5.2766 46.3613 5.8449 46.7138L7.43405 47.6996C7.66872 47.8451 7.97695 47.7729 8.12251 47.5382L10.451 48.9826C10.3055 49.2172 10.3777 49.5255 10.6124 49.671L13.7907 51.6425C14.0253 51.788 14.3336 51.7158 14.4791 51.4811L16.8076 52.9255C16.6621 53.1601 16.7343 53.4684 16.969 53.6139L20.1473 55.5854C20.382 55.7309 20.6902 55.6587 20.8357 55.424L23.1643 56.8684C23.0187 57.103 23.0909 57.4113 23.3256 57.5568L26.5039 59.5283C26.7386 59.6738 27.0468 59.6016 27.1924 59.3669L29.5209 60.8113C29.3753 61.0459 29.4476 61.3542 29.6822 61.4997L32.8605 63.4712C33.0952 63.6167 33.4034 63.5445 33.549 63.3098L35.8775 64.7542C35.7319 64.9888 35.8042 65.2971 36.0388 65.4426L37.628 66.4284C37.9877 66.6515 38.3713 66.8195 38.7668 66.9321C39.0324 67.0078 39.309 66.8538 39.3846 66.5883C39.3875 66.5781 39.3901 66.568 39.3923 66.5579C39.795 66.6197 40.205 66.6197 40.6077 66.5579C40.6099 66.568 40.6125 66.5781 40.6154 66.5883C40.691 66.8538 40.9676 67.0078 41.2332 66.9321C41.6287 66.8195 42.0123 66.6515 42.372 66.4284L43.9612 65.4426C44.1958 65.2971 44.2681 64.9888 44.1225 64.7542L46.451 63.3098C46.5966 63.5445 46.9048 63.6167 47.1395 63.4712L50.3178 61.4997C50.5524 61.3542 50.6247 61.0459 50.4791 60.8113L52.8076 59.3669C52.9532 59.6016 53.2614 59.6738 53.4961 59.5283L56.6744 57.5568C56.9091 57.4113 56.9813 57.103 56.8357 56.8684L59.1643 55.424C59.3098 55.6587 59.618 55.7309 59.8527 55.5854L63.031 53.6139C63.2657 53.4684 63.3379 53.1601 63.1924 52.9255L65.5209 51.4811C65.6664 51.7158 65.9747 51.788 66.2093 51.6425L69.3876 49.671C69.6223 49.5255 69.6945 49.2172 69.549 48.9826L71.8775 47.5382C72.023 47.7729 72.3313 47.8451 72.5659 47.6996L74.1551 46.7138C74.7234 46.3613 75.3271 46.1956 75.916 46.1826C76.1814 46.1767 76.3939 45.9651 76.4045 45.7035C77.4922 45.8182 78.5021 46.3802 79.1729 47.244C78.9561 47.391 78.8884 47.6831 79.0233 47.9117C79.3226 48.419 79.5 49.0194 79.5 49.6881V51.4193C79.5 51.6955 79.7239 51.9193 80 51.9193V54.3818C79.7239 54.3818 79.5 54.6056 79.5 54.8818V58.3442C79.5 58.6204 79.7239 58.8442 80 58.8442V61.3067C79.7239 61.3067 79.5 61.5305 79.5 61.8067V65.2691C79.5 65.5452 79.7239 65.7691 80 65.7691V68.2315C79.7239 68.2315 79.5 68.4554 79.5 68.7315V70.4628C79.5 70.7632 79.4615 71.0583 79.3879 71.3419C79.3211 71.599 79.4671 71.8613 79.7162 71.9427C79.5889 72.2622 79.4209 72.5641 79.2165 72.8407C79.016 72.6719 78.7162 72.6861 78.5329 72.8784C78.3307 73.0904 78.1003 73.2787 77.8449 73.437L76.0449 74.5536C75.8102 74.6991 75.738 75.0073 75.8836 75.242L73.1333 76.9479C72.9878 76.7132 72.6796 76.641 72.4449 76.7866L68.8449 79.0196C68.6102 79.1652 68.538 79.4734 68.6836 79.708L65.9333 81.414C65.7878 81.1793 65.4796 81.1071 65.2449 81.2526L61.6449 83.4856C61.4102 83.6312 61.338 83.9394 61.4836 84.1741L58.7334 85.88C58.5878 85.6453 58.2796 85.5731 58.0449 85.7187L54.4449 87.9517C54.2102 88.0972 54.138 88.4055 54.2836 88.6401L51.5333 90.346C51.3878 90.1114 51.0796 90.0391 50.8449 90.1847L47.2449 92.4177C47.0102 92.5633 46.938 92.8715 47.0836 93.1062L44.3333 94.8121C44.1878 94.5774 43.8796 94.5052 43.6449 94.6507L41.8449 95.7672C41.5649 95.9409 41.2666 96.0715 40.9592 96.1591C40.7038 96.2319 40.5516 96.4906 40.6077 96.7466C40.205 96.8084 39.795 96.8084 39.3923 96.7466C39.4484 96.4906 39.2962 96.2319 39.0408 96.1591C38.7334 96.0715 38.4351 95.9409 38.1551 95.7672L36.3551 94.6507C36.1204 94.5052 35.8122 94.5774 35.6666 94.8121L32.9164 93.1062C33.062 92.8715 32.9898 92.5633 32.7551 92.4177L29.1551 90.1847C28.9204 90.0391 28.6122 90.1114 28.4667 90.346L25.7164 88.6401C25.862 88.4055 25.7898 88.0972 25.5551 87.9517L21.9551 85.7187C21.7204 85.5731 21.4122 85.6453 21.2667 85.88L18.5164 84.1741C18.662 83.9394 18.5898 83.6312 18.3551 83.4856L14.7551 81.2526C14.5204 81.1071 14.2122 81.1793 14.0667 81.414L11.3164 79.708C11.462 79.4734 11.3898 79.1652 11.1551 79.0196L7.5551 76.7866C7.32044 76.641 7.01221 76.7132 6.86665 76.9479L4.11644 75.242C4.262 75.0073 4.18977 74.6991 3.9551 74.5536L2.1551 73.437C1.89975 73.2787 1.66933 73.0904 1.46713 72.8784ZM1.46713 27.8784C1.28381 27.6861 0.98396 27.6718 0.783518 27.8407C0.579085 27.5641 0.411092 27.2622 0.28381 26.9427C0.53294 26.8613 0.678867 26.599 0.612132 26.3419C0.538523 26.0583 0.500001 25.7633 0.500001 25.4628V23.7315C0.500001 23.4554 0.276143 23.2315 0 23.2315V20.7691C0.276143 20.7691 0.500001 20.5452 0.500001 20.2691L0.500001 16.8067C0.500001 16.5305 0.276144 16.3067 0 16.3067V13.8442C0.276144 13.8442 0.500001 13.6204 0.500001 13.3442L0.500001 9.88178C0.500001 9.60564 0.276144 9.38178 0 9.38178V6.91934C0.276144 6.91934 0.500001 6.69549 0.500001 6.41934V4.68812C0.500001 4.01938 0.677381 3.41897 0.976735 2.91172C1.11165 2.6831 1.04385 2.39097 0.827148 2.24402C1.49794 1.3802 2.50781 0.818226 3.59547 0.703526C3.60612 0.965139 3.81864 1.17674 4.08402 1.18259C4.67288 1.19559 5.2766 1.36133 5.8449 1.71384L7.43405 2.69956C7.66872 2.84512 7.97695 2.77289 8.12251 2.53822L10.451 3.98256C10.3055 4.21722 10.3777 4.52546 10.6124 4.67101L13.7907 6.64247C14.0253 6.78802 14.3336 6.71579 14.4791 6.48112L16.8076 7.92546C16.6621 8.16013 16.7343 8.46836 16.969 8.61392L20.1473 10.5854C20.382 10.7309 20.6902 10.6587 20.8357 10.424L23.1643 11.8684C23.0187 12.103 23.0909 12.4113 23.3256 12.5568L26.5039 14.5283C26.7386 14.6738 27.0468 14.6016 27.1924 14.3669L29.5209 15.8113C29.3753 16.0459 29.4476 16.3542 29.6822 16.4997L32.8605 18.4712C33.0952 18.6167 33.4034 18.5445 33.549 18.3098L35.8775 19.7542C35.7319 19.9888 35.8042 20.2971 36.0388 20.4426L37.628 21.4284C37.9877 21.6515 38.3713 21.8195 38.7668 21.9321C39.0324 22.0078 39.309 21.8538 39.3846 21.5883C39.3875 21.5781 39.3901 21.568 39.3923 21.5579C39.795 21.6197 40.205 21.6197 40.6077 21.5579C40.6099 21.568 40.6125 21.5781 40.6154 21.5883C40.691 21.8538 40.9676 22.0078 41.2332 21.9321C41.6287 21.8195 42.0123 21.6515 42.372 21.4284L43.9612 20.4426C44.1958 20.2971 44.2681 19.9888 44.1225 19.7542L46.451 18.3098C46.5966 18.5445 46.9048 18.6167 47.1395 18.4712L50.3178 16.4997C50.5524 16.3542 50.6247 16.0459 50.4791 15.8113L52.8076 14.3669C52.9532 14.6016 53.2614 14.6738 53.4961 14.5283L56.6744 12.5568C56.9091 12.4113 56.9813 12.103 56.8357 11.8684L59.1643 10.424C59.3098 10.6587 59.618 10.7309 59.8527 10.5854L63.031 8.61392C63.2657 8.46836 63.3379 8.16013 63.1924 7.92546L65.5209 6.48112C65.6664 6.71579 65.9747 6.78802 66.2093 6.64247L69.3876 4.67101C69.6223 4.52546 69.6945 4.21722 69.549 3.98256L71.8775 2.53822C72.0231 2.77289 72.3313 2.84512 72.5659 2.69956L74.1551 1.71384C74.7234 1.36133 75.3271 1.19559 75.916 1.18259C76.1814 1.17674 76.3939 0.965138 76.4045 0.703525C77.4922 0.818223 78.5021 1.38019 79.1729 2.24402C78.9561 2.39096 78.8884 2.6831 79.0233 2.91171C79.3226 3.41897 79.5 4.01937 79.5 4.68812V6.41934C79.5 6.69548 79.7239 6.91934 80 6.91934V9.38178C79.7239 9.38178 79.5 9.60564 79.5 9.88178V13.3442C79.5 13.6204 79.7239 13.8442 80 13.8442V16.3067C79.7239 16.3067 79.5 16.5305 79.5 16.8067V20.2691C79.5 20.5452 79.7239 20.7691 80 20.7691V23.2315C79.7239 23.2315 79.5 23.4554 79.5 23.7315V25.4628C79.5 25.7633 79.4615 26.0583 79.3879 26.3419C79.3211 26.599 79.4671 26.8613 79.7162 26.9427C79.5889 27.2622 79.4209 27.5641 79.2165 27.8407C79.016 27.6718 78.7162 27.6861 78.5329 27.8784C78.3307 28.0904 78.1003 28.2787 77.8449 28.437L76.0449 29.5536C75.8102 29.6991 75.738 30.0073 75.8836 30.242L73.1333 31.9479C72.9878 31.7133 72.6796 31.641 72.4449 31.7866L68.8449 34.0196C68.6102 34.1652 68.538 34.4734 68.6836 34.708L65.9333 36.414C65.7878 36.1793 65.4796 36.1071 65.2449 36.2526L61.6449 38.4856C61.4102 38.6312 61.338 38.9394 61.4836 39.1741L58.7334 40.88C58.5878 40.6453 58.2796 40.5731 58.0449 40.7187L54.4449 42.9517C54.2102 43.0972 54.138 43.4055 54.2836 43.6401L51.5333 45.346C51.3878 45.1114 51.0796 45.0391 50.8449 45.1847L47.2449 47.4177C47.0102 47.5633 46.938 47.8715 47.0836 48.1062L44.3333 49.8121C44.1878 49.5774 43.8796 49.5052 43.6449 49.6507L41.8449 50.7672C41.5649 50.9409 41.2666 51.0715 40.9592 51.1591C40.7038 51.2319 40.5516 51.4906 40.6077 51.7466C40.205 51.8084 39.795 51.8084 39.3923 51.7466C39.4484 51.4906 39.2962 51.2319 39.0408 51.1591C38.7334 51.0715 38.4351 50.9409 38.1551 50.7672L36.3551 49.6507C36.1204 49.5052 35.8122 49.5774 35.6666 49.8121L32.9164 48.1062C33.062 47.8715 32.9898 47.5633 32.7551 47.4177L29.1551 45.1847C28.9204 45.0391 28.6122 45.1114 28.4667 45.346L25.7164 43.6401C25.862 43.4055 25.7898 43.0972 25.5551 42.9517L21.9551 40.7187C21.7204 40.5731 21.4122 40.6453 21.2667 40.88L18.5164 39.1741C18.662 38.9394 18.5898 38.6312 18.3551 38.4856L14.7551 36.2526C14.5204 36.1071 14.2122 36.1793 14.0666 36.414L11.3164 34.708C11.462 34.4734 11.3898 34.1652 11.1551 34.0196L7.5551 31.7866C7.32044 31.641 7.01221 31.7133 6.86665 31.9479L4.11644 30.242C4.262 30.0073 4.18977 29.6991 3.9551 29.5536L2.1551 28.437C1.89975 28.2787 1.66933 28.0904 1.46713 27.8784Z" stroke="#F27370" stroke-linecap="round" stroke-dasharray="4 4"/>
</svg>
