<svg width="512" height="512" viewBox="0 0 512 512" fill="none" xmlns="http://www.w3.org/2000/svg">
<rect x="46" y="46" width="420" height="420" rx="25" fill="#F3F4F6"/>
<path d="M267.716 395.444C249.401 395.444 232.568 391 217.216 382.112C202.133 372.955 190.013 358.815 180.856 339.692C171.968 320.569 167.524 296.195 167.524 266.568C167.524 241.789 170.487 221.051 176.412 204.352C182.607 187.384 190.687 173.917 200.652 163.952C210.617 153.987 221.525 146.849 233.376 142.54C245.496 137.961 257.481 135.672 269.332 135.672C288.185 135.672 304.345 139.981 317.812 148.6C331.548 157.219 341.917 169.339 348.92 184.96L320.236 206.372L317.004 208.392L314.984 205.16C315.253 203.275 314.984 201.389 314.176 199.504C313.637 197.349 312.291 194.387 310.136 190.616C304.211 183.613 298.016 178.9 291.552 176.476C285.357 173.783 278.759 172.436 271.756 172.436C261.521 172.436 251.825 175.937 242.668 182.94C233.78 189.943 226.508 200.312 220.852 214.048C215.465 227.515 212.772 244.348 212.772 264.548C212.772 293.636 218.024 316.529 228.528 333.228C239.301 349.657 252.768 357.872 268.928 357.872C278.893 357.872 287.512 355.717 294.784 351.408C302.056 347.099 308.655 339.961 314.58 329.996L346.092 353.428C336.665 368.78 325.488 379.688 312.56 386.152C299.901 392.347 284.953 395.444 267.716 395.444Z" fill="#F27370"/>
</svg>
