<svg xmlns="http://www.w3.org/2000/svg" width="767.267" height="99.281"><defs><clipPath id="a" clipPathUnits="userSpaceOnUse"><path d="M637.5 36h117.711v19.516H637.5z"/></clipPath></defs><path d="M49.766 21.117l-16.447 38.4h33.04zm50.31 76.502H82.263L72.526 74.46H27.143l-9.872 23.16H0L42.231.966h15.615zm155.598.002h-17.008V17.28h-30.44V1.648h79.246L280.94 17.28h-25.265zm322.854-80.343H527.13v24.408h32.92v15.096h-32.92v25.503h51.424V97.62h-68.398V1.646h68.372zm120.504 80.349H682.95V1.653h16.082z" fill="#442b75"/><g clip-path="url(#a)" transform="matrix(8.49547 0 0 -8.49547 -5623.264 445.94)"><path d="M736.147 50.667c-1.154 0-2.135-.349-2.14-1.115-.006-.897.557-1.208 2.682-1.899 2.348-.772 3.595-1.557 3.582-3.467-.012-2.153-1.676-3.38-4.106-3.38-1.72 0-3.262.557-4.438 1.591l.732 1.772c1.067-.894 2.36-1.528 3.757-1.534 1.223-.006 2.093.59 2.093 1.47 0 .737-.426 1.227-2.487 1.88-2.364.775-3.792 1.583-3.78 3.508.014 1.915 1.81 3.004 4.068 2.993 2.26-.01 3.531-.837 3.724-.949l-.71-1.61c-.46.248-1.472.74-2.977.74m10.489-3.838l5.057 5.469h-2.423l-5.074-5.47 5.576-5.83h2.456zm-44.766-4.2c-2.22 0-3.84 1.799-3.84 4.019s1.62 4.02 3.84 4.02c2.22 0 3.842-1.8 3.842-4.02 0-2.22-1.622-4.02-3.842-4.02m0 9.864a5.843 5.843 0 1 1 .002-11.686 5.843 5.843 0 0 1-.002 11.686m12.22-9.684l-2.282-.002v7.65h2.29c2.22 0 3.833-1.573 3.833-3.792 0-2.22-1.623-3.856-3.841-3.856m0 9.489h-4.286V41h4.286c3.225 0 5.84 2.438 5.84 5.664 0 3.227-2.615 5.633-5.84 5.633m-29.849-6.291c0-3.368-1.976-5.184-4.842-5.184-2.865 0-4.84 1.816-4.84 5.184v6.29h2v-6.528c0-1.976 1.16-3.136 2.84-3.136 1.682 0 2.842 1.16 2.842 3.136v6.529h2z" fill="#442b75"/></g></svg>