<svg xmlns="http://www.w3.org/2000/svg" height="71.816" width="396"><path d="M143.685 26.004c0-.652.444-1 1-1 .943 0 2.366 1 3.169 3.001-.288 0-.72.087-1.011.087-1.716 0-3.158-.815-3.158-2.088zm-103.82 0c0-.652.424-1 1.005-1 .919 0 2.284 1 3.076 3.001-2.651 0-4.082-.573-4.082-2zm20.024-10.34c0-10.706 2.085-12.35 2.732-12.35 1.151 0 1.288.717 1.288 4.823 0 4.218-1.797 9.739-4.02 12.77zm72.893 10.554c-1.236 1.721-2.236 4.166-2.236 7.315 0 6.033 3.44 11.79 10.124 11.79 6.463 0 10.99-5.105 10.99-12.225 0-2.067-.079-2.352-.213-3.21 1.502-.655 2.798-1.656 3.807-2.456.858-.646 1.5-1.008 2.011-1.008.645 0 .927.504.927 1.436v14.087c0 2.294.726 3.377 2.513 3.377 1.648 0 2.807-1.157 3.448-2.519 2.376-4.955 5.816-11.56 7.318-14.068.362-.576.655-1.017.861-1.017.288 0 .436.22.436 1.149v11.214c0 3.155 1.441 5.24 4.588 5.24 3.31 0 4.953-3.17 7.846-8.051.137-.293.198-.502.198-.71 0-.647-.56-1.014-1.138-1.014-.652 0-1.011.652-3.16 3.015-.436.448-.858 1.071-1.655 1.071-.285 0-.504-.345-.504-.784V26.28c0-3.377-1.51-4.74-3.448-4.74-1.576 0-2.875.648-4.238 2.66-2.442 3.598-4.955 8.7-6.314 11.272-.154.301-.36.729-.5.729-.15 0-.213-.222-.213-.729V26.28c0-2.65-.718-4.74-3.525-4.74-2.946 0-4.45 2.015-6.605 3.52-1.365 1.016-2.582 1.727-3.511 2.157-1.444-3.662-4.097-5.518-6.323-5.462-2.233.076-3.812 1.449-3.812 3.748 0 2.358 1.444 4 3.374 4.731 1.072.43 2.08.513 3.524.513.433 0 .86 0 1.138-.082.153.715.085 1.734.085 2.52 0 3.525-2.083 7.034-5.956 7.034-4.032 0-6.392-3.878-6.392-8.327 0-3.379 1-6.175 2.64-8.107.663-.723 1.157-1.162 1.157-1.824 0-.336-.494-.42-.93-.42-2.735 0-5.742 1.225-7.82 2.297-2.742 1.438-5.966 3.817-8.627 6.185-1.291-2.88-2.87-5.393-3.664-7.339-.286-.79-.494-1.705-1.07-1.705-.51 0-.73.501-1.082 1.491-1.288 3.81-8.187 14.95-9.694 16.458-.143.206-.351.433-.42.433-.156 0-.237-.071-.237-.51V26.28c0-3.377-1.363-4.74-3.216-4.74-1.587 0-2.946.648-4.237 2.66-2.366 3.598-5.251 8.84-6.61 11.42-.22.444-.436.58-.51.58-.072 0-.13-.284-.13-.728V26.28c0-3.377-1.37-4.74-3.239-4.74-1.584 0-3.083.59-4.311 2.66-3.01 5.105-8.034 12.933-8.968 14.216-.145.222-.29.367-.433.435-.143 0-.225-.14-.225-.496V26.28c0-3.377-1.362-4.74-3.218-4.74-2.59 0-4.018 2.382-4.96 3.882-1.3 2.083-3.015 4.889-4.375 7.479-.937 1.732-1.732 3.3-2.022 3.3-.137 0-.137-.652-.137-1.87v-9.62c4.517-5.037 7.32-11.206 7.32-17.957 0-3.886-1.716-6.03-4.366-6.03-4.966 0-8.762 7.76-8.762 16.944v7.469c-2.302 1.438-4.46 2.14-7.12 2.66-1.36-4.012-4.238-6.098-6.527-6.042-2.22.076-3.806 1.449-3.806 3.748 0 3.802 3.735 5.38 7.03 5.38h.934c.14.724.14 1.516.14 2.303 0 3.524-2.08 7.033-5.948 7.033-4.018 0-6.394-3.878-6.394-8.327 0-3.379.996-6.175 2.648-8.107.652-.724 1.16-1.37 1.16-1.824 0-.336-.508-.42-.943-.42-2.727 0-8.752 3.677-15.938 10.858-.636-5.747-1.36-11.354-1.36-16.814 0-6.101 1.207-11.283 1.495-12.778.145-.926.235-1.51.235-1.932 0-.578-.307-.874-1.08-.874C12.783 0 0 9.27 0 23.13c0 9.828 3.598 14.572 9.834 20.676-3.786 6.106-6.822 13.356-6.822 19.82 0 4.66 1.088 8.19 4.525 8.19 7.184 0 12.564-14.93 12.564-25.996 0-3.3-.132-6.608-.414-9.905 2.647-2.817 6.742-6.61 7.74-6.97-.428 1.51-.715 3.094-.715 4.588 0 6.033 3.453 11.79 10.124 11.79 6.257 0 10.988-5.105 10.988-12.225 0-.919-.074-1.719-.138-2.577 2.287-.43 4.39-1.019 6.395-2.22v14.433c0 1.858 1.283 2.59 2.505 2.59 1.66 0 2.521-1.157 3.73-3.8 1.017-2.164 3.736-7.114 5.386-10.068 1.301-2.305 2.02-3.802 2.598-3.802.134 0 .287.351.287 1.215v12.283c0 3.306 1.724 4.172 3.216 4.172 1.436 0 2.376-.79 3.31-2.086 3.739-5.32 7.694-11.632 9.262-14.37.29-.49.647-.863.937-.863.28 0 .425.156.425 1.077v12.865c0 2.294.718 3.377 2.521 3.377 1.642 0 2.717-1.157 3.358-2.519 2.387-4.955 5.895-11.494 7.41-14.068.352-.576.714-1.083.927-1.083.299 0 .365.351.365 1.291v12.207c0 3.306 1.724 4.172 3.242 4.172 1.993 0 3.3-1.444 4.59-3.09 2.356-3.101 5.806-8.608 7.892-12.143.723 1.154 1.504 2.521 2.162 4.026-1.727 2.083-3.453 4.446-3.453 6.956 0 2.661 1.866 4.25 3.807 4.25 3.297 0 6.31-3.17 6.31-7.542 0-1.718-.494-3.519-1.136-5.238 2.928-2.88 6.452-5.68 9.05-6.325zM14.499 41.873c.58 3.802 1.085 7.545 1.085 10.484 0 6.882-2.292 14.929-6.244 14.863-1.526 0-2.809-1.526-2.872-4.169-.145-8.609 3.947-15.937 8.03-21.178zm104.843-4.894c.435 1.235.654 2.233.654 3.239 0 1.151-.433 2.302-1.227 2.302-.565 0-1.14-.647-1.14-1.655 0-1.08.929-2.804 1.713-3.886zM17.092 2.729c0 .439-1.006 2.443-2.295 6.038-1.365 3.728-2.666 9.037-2.666 15.431 0 3.807.942 8.842 1.737 13.937l-2.3 3.1c-3.666-4.465-5.96-9.484-5.96-18.106 0-12.205 7.394-20.671 11.193-20.671.227 0 .29.063.29.272zM354.29 26.004c0-.652.42-1 1.001-1 .927 0 2.365 1 3.152 3.001-.28 0-.71.087-1.01.087-1.709 0-3.143-.815-3.143-2.088zm-103.842 0c0-.652.439-1 1.006-1 .935 0 2.313 1 3.086 3.001-2.656 0-4.092-.573-4.092-2zm20.038-10.34c0-10.706 2.072-12.35 2.727-12.35 1.146 0 1.291.717 1.291 4.823 0 4.218-1.8 9.739-4.018 12.77zm-45.377 26.21c.558 3.8 1.08 7.544 1.08 10.483 0 6.882-2.294 14.929-6.254 14.863-1.505 0-2.798-1.526-2.87-4.169-.147-8.609 3.952-15.937 8.044-21.178zm104.84-4.895c.436 1.235.642 2.233.642 3.239 0 1.151-.43 2.302-1.22 2.302-.567 0-1.159-.647-1.159-1.655 0-1.08.943-2.804 1.738-3.886zM227.682 2.729c0 .439-.995 2.443-2.297 6.038-1.354 3.728-2.656 9.037-2.656 15.431 0 3.807.959 8.842 1.743 13.937l-2.305 3.1c-3.657-4.465-5.967-9.484-5.967-18.106 0-12.205 7.411-20.671 11.21-20.671.208 0 .272.063.272.272zm-11.973 35.908c1.283 1.723 2.867 3.373 4.734 5.169-3.81 6.106-6.822 13.356-6.822 19.82 0 4.66 1.085 8.19 4.533 8.19 7.173 0 12.553-14.93 12.553-25.996 0-3.3-.14-6.608-.427-9.905 2.66-2.817 6.74-6.61 7.759-6.97-.433 1.51-.732 3.094-.732 4.588 0 6.033 3.45 11.79 10.135 11.79 6.241 0 10.98-5.105 10.98-12.225 0-.919-.066-1.719-.145-2.577 2.302-.43 4.398-1.019 6.397-2.22v14.433c0 1.858 1.285 2.59 2.497 2.59 1.674 0 2.535-1.157 3.749-3.8 1-2.164 3.736-7.114 5.39-10.068 1.29-2.305 2.007-3.802 2.596-3.802.135 0 .27.351.27 1.215v12.283c0 3.306 1.718 4.172 3.228 4.172 1.441 0 2.365-.79 3.318-2.086 3.723-5.32 7.678-11.632 9.254-14.37.287-.49.652-.863.929-.863.28 0 .438.156.438 1.077v12.865c0 2.294.71 3.377 2.503 3.377 1.653 0 2.73-1.157 3.382-2.519 2.37-4.955 5.887-11.494 7.39-14.068.366-.576.723-1.083.947-1.083.28 0 .359.351.359 1.291v12.207c0 3.306 1.708 4.172 3.213 4.172 2.025 0 3.318-1.444 4.601-3.09 2.369-3.101 5.824-8.608 7.905-12.143.71 1.154 1.51 2.521 2.162 4.026-1.743 2.083-3.448 4.446-3.448 6.956 0 2.661 1.845 4.25 3.799 4.25 3.297 0 6.31-3.17 6.31-7.542 0-1.718-.5-3.519-1.146-5.238 2.94-2.88 6.463-5.68 9.047-6.325-1.22 1.721-2.225 4.166-2.225 7.315 0 6.033 3.45 11.79 10.13 11.79 6.462 0 10.974-5.105 10.974-12.225 0-2.067-.066-2.352-.2-3.21 1.49-.655 2.792-1.656 3.809-2.456.842-.646 1.502-1.008 1.996-1.008.649 0 .953.504.953 1.436v14.087c0 2.294.707 3.377 2.502 3.377 1.645 0 2.801-1.157 3.45-2.519 2.356-4.955 5.809-11.56 7.311-14.068.36-.576.652-1.017.869-1.017.293 0 .433.22.433 1.149v11.214c0 3.155 1.423 5.24 4.59 5.24 3.314 0 4.961-3.17 7.839-8.051.134-.293.203-.502.203-.71 0-.647-.576-1.014-1.146-1.014-.641 0-1.008.652-3.157 3.015-.425.448-.863 1.071-1.65 1.071-.296 0-.5-.345-.5-.784V26.28c0-3.377-1.525-4.74-3.463-4.74-1.57 0-2.856.648-4.227 2.66-2.447 3.598-4.952 8.7-6.306 11.272-.156.301-.365.729-.518.729-.153 0-.209-.222-.209-.729V26.28c0-2.65-.718-4.74-3.519-4.74-2.951 0-4.45 2.015-6.602 3.52-1.378 1.016-2.59 1.727-3.533 2.157-1.423-3.662-4.089-5.518-6.304-5.462-2.239.076-3.804 1.449-3.804 3.748 0 2.358 1.436 4 3.358 4.731 1.08.43 2.085.513 3.54.513.42 0 .837 0 1.143-.082.14.715.066 1.734.066 2.52 0 3.525-2.088 7.034-5.969 7.034-4.018 0-6.378-3.878-6.378-8.327 0-3.379.998-6.175 2.643-8.107.654-.723 1.161-1.162 1.161-1.824 0-.336-.507-.42-.937-.42-2.716 0-5.742 1.225-7.825 2.297-2.732 1.438-5.964 3.817-8.612 6.185-1.296-2.88-2.867-5.393-3.667-7.339-.295-.79-.49-1.705-1.087-1.705-.497 0-.716.501-1.07 1.491-1.296 3.81-8.184 14.95-9.691 16.458-.145.206-.36.433-.436.433-.134 0-.214-.071-.214-.51V26.28c0-3.377-1.354-4.74-3.239-4.74-1.581 0-2.925.648-4.232 2.66-2.373 3.598-5.238 8.84-6.602 11.42-.212.444-.423.58-.491.58-.082 0-.156-.284-.156-.728V26.28c0-3.377-1.355-4.74-3.224-4.74-1.584 0-3.102.59-4.31 2.66-3.026 5.105-8.045 12.933-8.985 14.216-.127.222-.28.367-.433.435-.126 0-.211-.14-.211-.496V26.28c0-3.377-1.36-4.74-3.234-4.74-2.592 0-4.018 2.382-4.958 3.882-1.29 2.083-3.004 4.889-4.374 7.479-.927 1.732-1.72 3.3-2.007 3.3-.145 0-.145-.652-.145-1.87v-9.62c4.53-5.037 7.32-11.206 7.32-17.957 0-3.886-1.718-6.03-4.384-6.03-4.948 0-8.75 7.76-8.75 16.944v7.469c-2.304 1.438-4.458 2.14-7.12 2.66-1.354-4.012-4.229-6.098-6.512-6.042-2.242.076-3.815 1.449-3.815 3.748 0 3.802 3.722 5.38 7.033 5.38h.94c.132.724.132 1.516.132 2.303 0 3.524-2.075 7.033-5.956 7.033-4.024 0-6.381-3.878-6.381-8.327 0-3.379 1.003-6.175 2.643-8.107.644-.724 1.15-1.37 1.15-1.824 0-.336-.506-.42-.931-.42-2.733 0-8.76 3.677-15.949 10.858-.63-5.747-1.357-11.354-1.357-16.814 0-6.101 1.22-11.283 1.508-12.778.142-.926.222-1.51.222-1.932 0-.578-.293-.874-1.07-.874-5.818 0-18.601 9.27-18.601 23.13 0 5.665 1.22 9.696 3.374 13.21-.803-.14-1.434-.14-2.022-.14-2.29 0-4.451.57-5.793.863V35.62c0-3.076-.728-7.318-2.025-8.757a.817.817 0 0 0-.567-.211c-.591 0-1.299.277-2.086.713-.87.433-1.732.868-1.732 1.148 0 .137 0 .283.217.639.507.737 1.874 2.16 2.368 5.544-2.447-2.445-5.235-3.53-8.884-3.53-4.316 0-5.615 1.933-5.615 3.884 0 3.733 4.955 5.6 11.212 5.6 1.146 0 2.434-.217 3.72-.51 0 1.15.145 2.17.145 3.025 0 1.222.209 2.16 1.009 2.16 1.217 0 1.94-2.453 2.077-5.964 2.226-.578 4.528-1.075 6.474-1.075.929 0 2.09.13 3.228.352zm-14.145-.719c-1.209.143-1.945.143-3.226.143-2.809 0-4.879-1.082-4.879-2.648 0-1.003.497-1.587 1.933-1.587 2.302 0 4.158 1.587 6.172 4.092z" fill="#442b75" fill-rule="evenodd"/></svg>