<svg xmlns="http://www.w3.org/2000/svg" style="isolation:isolate" width="376" height="43.6"><defs><clipPath id="a"><path d="M0 0h376v43.6H0z"/></clipPath></defs><g clip-path="url(#a)" fill="#442B75"><path d="M8.8 0v35.5H32v8.1H0V0h8.8zm36.4 37.3C41 33.1 39 27.9 39 21.8c0-6.2 2.1-11.4 6.2-15.5C49.4 2.1 54.5.1 60.7.1c6.2 0 11.4 2.1 15.5 6.2 4.2 4.2 6.2 9.3 6.2 15.5 0 6.2-2.1 11.4-6.2 15.5-4.2 4.2-9.3 6.2-15.5 6.2-6.1.1-11.3-2-15.5-6.2zm15.6-1.9c3.9 0 7-1.3 9.4-3.9 2.4-2.6 3.6-5.9 3.6-9.7 0-3.9-1.2-7.1-3.6-9.7-2.4-2.6-5.6-3.9-9.5-3.9-3.9 0-7 1.3-9.4 3.9-2.4 2.6-3.6 5.9-3.6 9.7 0 3.9 1.2 7.1 3.6 9.7 2.5 2.6 5.6 3.9 9.5 3.9zM138.2 0h8.7v43.6h-8.7V0zm25.9 37.3c-4.2-4.2-6.3-9.4-6.3-15.6 0-6.1 2.1-11.3 6.3-15.4 4.2-4.2 9.3-6.3 15.5-6.3 6.2 0 11.6 1.9 16 5.8l-5.8 6.4c-3-2.3-6.4-3.5-10.2-3.5-3.9 0-7.1 1.2-9.5 3.7-2.4 2.4-3.6 5.5-3.6 9.3 0 4.1 1.2 7.3 3.6 9.6 2.4 2.4 5.6 3.6 9.5 3.6 3.9 0 7.3-1.2 10.1-3.5l5.8 6.4c-4.4 3.9-9.8 5.8-16 5.8-6.1 0-11.2-2.1-15.4-6.3zm95.1-.4l-2.6 6.7h-9.3L264.7 0h8.7l17.4 43.6h-9.3l-2.6-6.7m.1 0h-19.8m3.5-8.7h13.1m0 0l-6.5-16.6-6.6 16.6M290.9 0l3.2 8.1h14.5v35.5h8.8V8.1h14.5V0M223.5 20.5l8.1 8.1V33c-1.7 1.2-4.1 1.9-7.2 1.9-3.9 0-7.1-1.2-9.5-3.6-2.4-2.4-3.6-5.6-3.6-9.6 0-3.8 1.2-6.9 3.6-9.3 2.4-2.4 5.5-3.6 9.5-3.7 3.8 0 7.2 1.2 10.2 3.5l5.8-6.4c-4.5-3.9-9.8-5.8-16-5.8-6.2 0-11.3 2.1-15.5 6.3-4.2 4.2-6.3 9.3-6.3 15.4 0 6.3 2.1 11.5 6.3 15.6 4.2 4.2 9.3 6.2 15.5 6.3 6.2 0 11.6-1.9 16-5.8V20.5h-16.9zm-113.1 0l8.1 8.1V33c-1.7 1.2-4.1 1.9-7.2 1.9-3.9 0-7.1-1.2-9.5-3.6-2.4-2.4-3.6-5.6-3.6-9.6 0-3.8 1.2-6.9 3.6-9.3 2.4-2.4 5.5-3.6 9.5-3.7 3.8 0 7.2 1.2 10.2 3.5l5.8-6.4c-4.5-3.9-9.8-5.8-16-5.8-6.2 0-11.3 2.1-15.5 6.3-4.2 4.2-6.3 9.3-6.3 15.4 0 6.3 2.1 11.5 6.3 15.6 4.2 4.2 9.3 6.2 15.5 6.3 6.2 0 11.6-1.9 16-5.8V20.5h-16.9zm262.4 14.9h-21.3v-9.9H369v-8.1h-17.5V8.1h21.3L376 0h-33.2v43.6H376l-3.2-8.2z"/></g></svg>