<svg xmlns="http://www.w3.org/2000/svg" width="116" height="32" viewBox="0 0 116 32" fill="none"><path fill-rule="evenodd" clip-rule="evenodd" d="M32 0H0V32H32V0ZM10 6H6V26H10V6ZM18 6H14V14H18V6ZM22 6H26V26H22V6Z" fill="#442b75"></path><path fill-rule="evenodd" clip-rule="evenodd" d="M42 11H44V21H42V11ZM50 11H52V21H50V11ZM48 11H46V15H48V11ZM64 13V11H58V13L64 13ZM54 21H56H64V19H56L56 17L54 17V21ZM56 15V17L64 17V15L56 15ZM76 11V13H72V21H70V13H66V11H70H72H76ZM88 15L86 15V11H88V15ZM78 15H80L86 15V17H80V21H78V15ZM86 21H88V17L86 17V21ZM80 11V13L86 13V11H80ZM90.0001 21H92.0001V11H90.0001V21ZM98 13L104 13V11H98V13ZM104 17H102L102 15L96 15V13L94 13V17H96L102 17L102 19L94 19V21L102 21H104V17ZM112 11H116V13H112V21H110V13H106V11H110H112Z" fill="#442b75"></path></svg>
