<svg class="" fill="#442b75" height="1em" viewBox="0 0 192 72" width="2.66666666667em" xmlns="http://www.w3.org/2000/svg"><path id="n" d="M32.94 25.575a12.606 12.606 0 00-2.078-1.927 12.149 12.149 0 00-2.162-1.274 10.006 10.006 0 00-1.174-.442 13.5 13.5 0 00-1.9-.432h-8.35l-5.521 6.293v-6.162H.05v33.2h11.712V32.43h11l.914-.02v22.412h11.713V34.056a19.842 19.842 0 00-.512-4.727 9.223 9.223 0 00-1.937-3.754z"></path><path id="g" d="M65.619 25.033a12.872 12.872 0 00-9.9-4.406 15.942 15.942 0 00-6.695 1.395 16.425 16.425 0 00-5.309 3.814 18.287 18.287 0 00-3.523 5.7 19.053 19.053 0 00-1.292 7.087 18.866 18.866 0 001.2 6.835 15.1 15.1 0 008.511 8.7 16.911 16.911 0 006.534 1.235 18.069 18.069 0 002.97-.231 11.735 11.735 0 002.59-.743A15.166 15.166 0 0063.13 53.1a20.838 20.838 0 002.489-2.038v8.7h-.01v.838h-10.96l-8.24 9.274v1.6h30.922V21.541H65.619zm-.03 15.948a8.489 8.489 0 01-1.616 2.429 7.179 7.179 0 01-2.389 1.616 7.453 7.453 0 01-2.941.582 7.625 7.625 0 01-3.011-.582 7.206 7.206 0 01-2.4-1.616 7.8 7.8 0 01-1.586-2.429 7.656 7.656 0 01-.582-3.011 6.936 6.936 0 01.612-2.91 7.53 7.53 0 011.658-2.36 8.361 8.361 0 012.389-1.616 6.948 6.948 0 012.91-.612 7.6 7.6 0 015.31 2.2A8.311 8.311 0 0165.6 35.06a7.11 7.11 0 01.612 2.981 7.329 7.329 0 01-.623 2.94z"></path><path id="r" d="M111.777 21.541H99l-5.078 5.72v-5.72H82.2v33.2h11.742l.01-22.221h8.521L111.777 22z"></path><path id="o" d="M142.5 25.324a19.523 19.523 0 00-6.343-3.683 23.112 23.112 0 00-7.929-1.325 22.785 22.785 0 00-7.989 1.355 19.861 19.861 0 00-6.313 3.714 16.969 16.969 0 00-4.145 5.57 16.149 16.149 0 00-1.486 6.9 17.911 17.911 0 001.486 7.407 17.017 17.017 0 004.115 5.721 18.194 18.194 0 006.242 3.693 23.336 23.336 0 007.9 1.3 24.413 24.413 0 008.06-1.3 18.519 18.519 0 006.373-3.663 17.2 17.2 0 004.175-5.631 16.863 16.863 0 001.526-7.216 17.341 17.341 0 00-1.486-7.216 16.848 16.848 0 00-4.186-5.626zm-7.317 15.718a8.475 8.475 0 01-1.616 2.429 7.177 7.177 0 01-2.388 1.615 7.735 7.735 0 01-5.892 0 7.077 7.077 0 01-2.388-1.615 8.275 8.275 0 01-1.616-2.429 7.455 7.455 0 01-.613-3.072 6.936 6.936 0 01.613-2.91 8.348 8.348 0 011.616-2.389 7.047 7.047 0 012.388-1.616 7.747 7.747 0 015.892 0 6.951 6.951 0 012.388 1.616 8.275 8.275 0 011.616 2.429 7.142 7.142 0 01.613 2.941 7.29 7.29 0 01-.614 3.001z"></path><path id="k" d="M175.068 36.876l16.018-14.773v-.562H175.65l-12.285 11.973V1.026h-11.713v53.706h11.713v-13.52l12.877 13.52h15.808v-.633l-16.982-17.223z"></path></svg>
