<svg xmlns="http://www.w3.org/2000/svg" style="isolation:isolate" width="332.904" height="67.845"><defs><clipPath id="a"><path d="M0 0h332.904v67.845H0z"/></clipPath></defs><g clip-path="url(#a)" fill="#442B75"><path d="M15.287 22.657c-1.604 2.472-2.196 5.439-2.196 8.406 0 6.839 3.379 13.033 10.643 13.033 7.011 0 10.473-5.699 10.473-12.457 0-4.779-1.182-8.488-3.632-10.795-2.702-2.472-5.743-2.554-7.601-2.39-3.717.248-5.913 1.484-7.687 4.203zm32.097 8.486c0 11.149-6.42 23.227-23.65 23.227C11.318 54.37 0 47.444 0 31.143 0 17.628 8.531 7.24 25.423 8.17c17.991 1.013 21.961 14.948 21.961 22.973m115.318-17.991c1.267-1.352 2.112-2.365 4.392-3.463 2.027-.845 4.899-1.519 8.024-1.519 2.619 0 5.575.421 7.855 1.688 4.646 2.449 5.829 6.419 5.829 13.26v30.154h-12.923V28.44c0-3.97-.085-5.406-.592-6.588-1.014-2.365-3.294-3.379-5.827-3.379-6.842 0-6.842 5.49-6.842 10.98v23.819h-13.007V9.267h13.091v3.885zm-32.191 12.43c-.253-1.858-.592-4.308-2.45-6.25-1.605-1.605-4.054-2.45-6.335-2.45-3.125 0-5.32 1.521-6.587 2.872-1.774 1.943-2.197 3.97-2.619 5.828h17.991zm12.922 16.301c-1.191 2.51-5.027 12.487-21.96 12.487-13.092 0-22.298-8.01-22.298-22.453 0-10.643 5.237-23.747 22.636-23.747 2.619 0 10.22-.325 15.879 5.756 5.743 6.166 6.081 14.781 6.25 19.764h-31.504c-.085 5.49 3.04 10.981 10.051 10.981 7.095 0 9.544-4.646 11.149-7.771l9.797 4.983m180.856-23.481h8.615V9.267h-8.531V0h-12.922v9.267h-2.05l-5.916 9.135h7.966v20.934c0 4.222.084 7.347 1.857 9.967 2.788 4.053 7.687 4.307 12.164 4.307 2.365 0 4.053-.254 6.841-.676V42.799l-4.645.168c-3.463 0-3.463-2.28-3.379-4.983V18.402zM195.274 0h12.922v9.267h13.431l-5.915 9.135h-7.6v19.582c-.085 2.703-.085 4.983 3.379 4.983l4.646-.168v10.135c-2.789.422-4.477.676-6.842.676-4.477 0-9.376-.254-12.163-4.307-1.774-2.62-1.858-5.745-1.858-9.967V0"/><path d="M250.157 25.582c-.254-1.858-.592-4.308-2.45-6.25-1.605-1.605-4.054-2.45-6.334-2.45-3.125 0-5.321 1.521-6.588 2.872-1.774 1.943-2.196 3.97-2.619 5.828h17.991zm12.186 16.34l-2.475 3.823c-2.316 3.398-6.675 8.625-19.16 8.625-13.092 0-21.887-8.01-21.887-22.453 0-10.643 5.236-23.747 22.636-23.747 2.618 0 10.22-.325 15.879 5.756 5.744 6.166 6.081 14.781 6.251 19.764h-31.505c-.085 5.49 2.629 10.981 9.64 10.981 7.094 0 9.132-4.646 10.737-7.771l9.884 5.022"/><path d="M306.617 53.277L290.46 30.112l13.474-20.845h-14.79l-6.36 9.84-6.864-9.84h-14.79l14.54 20.845-14.974 23.165h14.79l7.861-12.159 8.481 12.159h14.789zM74.071 18.323c-2.365 0-4.814.944-6.672 3.302-1.859 2.28-2.703 5.817-2.703 9.669 0 5.188 1.521 8.332 3.125 10.14 1.5 1.692 3.716 2.662 5.828 2.662 6.335 0 9.122-6.671 9.122-13.117 0-5.424-1.605-11.162-6.926-12.42a6.889 6.889 0 0 0-1.774-.236zm-8.784-5.171c1.244-1.89 5.233-4.983 11.568-4.983 10.811 0 18.416 8.193 18.416 22.889 0 9.037-3.291 23.312-18.959 23.312-5.634 0-10.004-3.134-11.11-4.984v18.459H52.195V9.267h13.092v3.885z"/></g></svg>