<svg width="140" height="40" viewBox="40 0 140 40" fill="none" xmlns="http://www.w3.org/2000/svg">
<path d="M66.418 14.96C66.418 10.24 63.3598 8 57.0018 8C54.4264 8 51.9315 8.16 50.4829 8.24C50.4829 8.24 50 8.32 50 8.8V31.5199C50 31.5199 50 31.9999 50.4829 31.9999H54.2655C54.2655 31.9999 54.7483 31.9999 54.7483 31.5199V22.8799C54.7483 22.8799 54.7483 22.3999 55.2312 22.3999H57.4042C57.4042 22.3999 57.8871 22.3999 58.048 22.7999L62.0721 31.5199C62.0721 31.5199 62.233 31.9199 62.7159 31.9199H66.9009C66.9009 31.9199 67.3838 31.9199 67.1423 31.5199L62.233 21.5999C62.233 21.5999 61.9916 21.1999 61.9916 21.1199C61.9916 21.1199 61.9916 21.1199 62.394 20.9599C64.567 20.3999 66.418 18.08 66.418 14.96ZM61.5892 15.2C61.5892 17.44 59.8991 18.7999 57.4042 18.7999H55.1508C55.1508 18.7999 54.6679 18.7999 54.6679 18.32V12.24C54.6679 12.24 54.6679 11.76 54.9898 11.76C55.3117 11.76 56.1165 11.68 57.3237 11.68C59.9796 11.68 61.5892 12.56 61.5892 15.2Z" fill="#442b75"/>
<path d="M168.789 31.8366C168.789 31.8366 169.272 31.8366 169.272 31.3468V8.48979C169.272 8.48979 169.272 8 168.789 8H165.248C165.248 8 164.765 8 164.765 8.48979V17.2244C164.765 17.2244 164.765 17.7142 164.765 18.1224L164.926 24.3265V24.8162C164.926 24.8162 164.926 24.8162 164.685 24.4081C162.351 19.1836 159.132 13.551 156.315 8.48979C156.315 8.48979 156.073 8.08163 155.671 8.08163H151.245C151.245 8.08163 150.762 8.08163 150.762 8.57143V31.5101C150.762 31.5101 150.762 31.9999 151.245 31.9999H154.786C154.786 31.9999 155.269 31.9999 155.269 31.5101V22.2856C155.269 22.2856 155.269 21.7959 155.269 21.3877L155.188 15.1836C155.188 15.1836 155.188 14.6938 155.269 14.6938C155.269 14.6938 155.188 14.6938 155.269 14.6938C155.269 14.6938 155.349 14.6938 155.51 15.102C157.12 18.5306 159.615 23.102 164.121 31.4285C164.121 31.4285 164.363 31.8366 164.765 31.8366H168.789Z" fill="#442b75"/>
<path d="M137.562 31.9999C144.001 31.9999 146.979 28.4799 146.979 21.5199V8.48C146.979 8.48 146.979 8 146.496 8H142.633C142.633 8 142.15 8 142.15 8.48V22.3999C142.15 26.2399 140.621 28.1599 137.562 28.1599C134.746 28.1599 133.136 25.9999 133.136 22.3999V8.48C133.136 8.48 133.136 8 132.653 8H128.79C128.79 8 128.307 8 128.307 8.48V22.2399C128.468 28.8799 131.768 31.9999 137.562 31.9999Z" fill="#442b75"/>
<path d="M101.427 8C101.427 8 100.944 8 100.783 8.4L98.5294 13.76L96.5979 19.0399C96.5979 19.0399 96.5979 19.0399 96.4369 18.6399L94.6664 13.76L92.4934 8.4C92.4934 8.4 92.3324 8 91.8496 8H87.2622C87.2622 8 86.7793 8 87.0207 8.4L93.942 22.3199C93.942 22.3199 94.1835 22.7199 94.1835 23.1999V31.5199C94.1835 31.5199 94.1835 31.9999 94.6664 31.9999H98.7709C98.7709 31.9999 99.2538 31.9999 99.2538 31.5199V23.1999C99.2538 23.1999 99.2538 22.7199 99.4952 22.3199L106.497 8.4C106.497 8.4 106.738 8 106.256 8H101.427Z" fill="#442b75"/>
<path d="M120.904 21.9999C120.904 21.9999 120.421 21.9999 120.421 22.4799V27.4399C120.421 27.4399 120.421 27.9199 120.179 27.9999C119.938 28.0799 119.053 28.2399 118.006 28.2399C113.66 28.2399 110.844 25.1999 110.844 20.0799C110.844 14.8 113.741 12 118.167 12C120.421 12 122.755 12.4 124.203 12.96L124.364 9.59999C124.364 9.59999 124.364 9.11999 123.962 8.96C123.157 8.48 120.823 8 118.248 8C110.602 8 106.095 12.96 106.095 20.1599C106.095 27.1199 109.958 31.9999 117.845 31.9999C120.582 31.9999 123.479 31.3599 124.686 30.9599C124.686 30.9599 125.089 30.7999 125.089 30.3199V22.3999C125.089 22.3999 125.089 21.9199 124.606 21.9199H120.904V21.9999Z" fill="#442b75"/>
<path d="M68.1073 31.6001C68.1073 31.6001 67.9463 32.0001 68.4292 32.0001H72.5337C72.5337 32.0001 73.0166 32.0001 73.0971 31.6001L75.431 22.4801H70.8436L68.1073 31.6001Z" fill="#442b75"/>
<path d="M76.7187 17.6001L78.1673 12.0001H78.2478L79.6964 17.6001L80.0184 18.8801H84.7667L81.628 8.48012C81.628 8.48012 81.467 8.00012 81.0646 8.00012H75.7529C75.7529 8.00012 75.27 8.00012 75.1895 8.48012L72.0508 18.8801H76.4772L76.7187 17.6001Z" fill="#442b75"/>
<path d="M88.63 31.6001L85.8132 22.4801H80.9844L83.3988 31.5201L83.4793 31.7601C83.4793 31.7601 83.5598 32.0001 84.0426 32.0001H88.3081C88.3081 32.0001 88.791 32.0001 88.63 31.6001Z" fill="#442b75"/>
</svg>
