<svg xmlns="http://www.w3.org/2000/svg" width="52.86" height="14.957"><path d="M.083 7.864A53.12 53.12 0 0 0 0 4.616h2.214l.096 1.92h.072c.498-1.423 1.678-2.15 2.769-2.15.249 0 .395.01.601.056V6.85a3.695 3.695 0 0 0-.772-.072c-1.218 0-2.064.775-2.293 1.934a4.329 4.329 0 0 0-.066.77v5.244H.062zm8.757 2.495c.067 1.832 1.486 2.634 3.124 2.634 1.176 0 2.019-.185 2.79-.468l.38 1.759c-.865.367-2.066.64-3.534.64-3.285 0-5.21-2.027-5.21-5.125 0-2.791 1.693-5.43 4.947-5.43 3.29 0 4.36 2.703 4.36 4.916 0 .476-.042.856-.09 1.094zm4.448-1.781c.012-.937-.396-2.464-2.11-2.464-1.574 0-2.23 1.429-2.344 2.464zm10.874 1.764c0 .268-.02.518-.078.746-.257 1.107-1.163 1.819-2.209 1.819-1.61 0-2.532-1.357-2.532-3.214 0-1.876.913-3.329 2.56-3.329 1.151 0 1.975.812 2.2 1.796.044.207.06.463.06.667zM26.718.721L24.162 0v5.704h-.042c-.453-.747-1.45-1.317-2.836-1.317-2.433 0-4.55 2.012-4.535 5.399 0 3.108 1.913 5.167 4.33 5.167 1.458 0 2.68-.695 3.284-1.828h.045l.115 1.601h2.28c-.047-.688-.085-1.8-.085-2.835zm6.764 3.654c-.77 0-1.462.222-2.04.58a3.714 3.714 0 0 0-1.384 1.46h-.04V1.682l-1.002-.296v13.34h1.001V8.537c0-.41.031-.696.137-.997.432-1.26 1.62-2.292 3.054-2.292 2.072 0 2.79 1.661 2.79 3.483v5.994H37V8.623c0-3.769-2.558-4.248-3.517-4.248m12.502 7.947c0 .802.032 1.629.148 2.404h-.922l-.148-1.45h-.047c-.49.78-1.619 1.68-3.228 1.68-2.037 0-2.986-1.432-2.986-2.78 0-2.336 2.064-3.744 6.183-3.7v-.27c0-1.001-.195-2.997-2.59-2.982-.887 0-1.81.236-2.543.753l-.318-.727c.926-.627 2.055-.875 2.971-.875 2.921 0 3.48 2.192 3.48 4zm-1-3.004c-2.206-.064-5.117.27-5.117 2.7 0 1.453.96 2.107 2.015 2.107 1.687 0 2.647-1.044 2.997-2.029.072-.215.105-.433.105-.607zm4.988-6.941v2.23h2.887v.811h-2.887v6.577c0 1.287.399 2.093 1.488 2.093.52 0 .89-.068 1.15-.159l.12.775c-.326.138-.785.243-1.396.243-.74 0-1.352-.232-1.748-.716-.458-.532-.615-1.38-.615-2.414V5.418h-1.708v-.812h1.708v-1.86z" fill="#442b75"/></svg>