<svg width="792" height="204" xmlns="http://www.w3.org/2000/svg" data-name="Layer 1">

 <title>rt-insights-logo</title>
 <g>
  <title>Layer 1</title>
  <path id="svg_44" fill="#442b75" d="m56.639,96.713l0,40.806l-24.7,0l0,-121.711l47.251,0c27.744,0 42.958,12.351 42.958,40.092c0,16.827 -6.8,28.1 -17.9,35.085l17.364,46.534l-27.026,0l-14.14,-40.806l-23.807,0zm22.551,-59.783l-22.551,0l0,38.664l22.914,0c12.347,0 17.358,-8.594 17.358,-19.336c0,-11.635 -5.901,-19.328 -17.721,-19.328z" class="cls-2"/>
  <path id="svg_45" fill="#442b75" d="m128.611,15.808l89.489,0l0,21.84l-32.213,0l0,99.871l-24.7,0l0,-99.871l-32.576,0l0,-21.84z" class="cls-2"/>
  <path id="svg_46" fill="#442b75" d="m644.322,184.436l4.759,0l0,6.616l-4.759,0l0,-6.616z" class="cls-2"/>
  <path id="svg_47" fill="#442b75" d="m678.221,162.32l-0.174,3.541s-4.645,-0.522 -6.85,-0.522c-6.676,0 -8.475,2.9 -8.475,10.679c0,8.591 1.336,11.726 8.532,11.726c2.207,0 6.85,-0.522 6.85,-0.522l0.174,3.6a76.992,76.992 0 0 1 -8.067,0.813c-9.231,0 -11.959,-4.237 -11.959,-15.615c0,-10.506 3.425,-14.569 12.075,-14.569a67.381,67.381 0 0 1 7.894,0.869z" class="cls-2"/>
  <path id="svg_48" fill="#442b75" d="m710.323,176.193c0,10.564 -2.612,15.44 -12.421,15.44c-9.753,0 -12.422,-4.876 -12.422,-15.44c0,-9.983 3.25,-14.744 12.422,-14.744c9.228,0 12.421,4.761 12.421,14.744zm-4.47,0c0,-8.068 -1.742,-10.97 -7.951,-10.97c-6.153,0 -7.954,2.9 -7.954,10.97c0,8.243 1.1,11.667 7.954,11.667c6.906,0 7.951,-3.424 7.951,-11.667z" class="cls-2"/>
  <path id="svg_49" fill="#442b75" d="m719.73,191.052l0,-29.022l4.295,0l0,2.032s4.353,-2.613 8.473,-2.613c3.89,0 6.038,0.871 7.548,2.961c0,0 5.164,-2.961 10.331,-2.961c7.894,0 9.81,3.774 9.81,14.28l0,15.323l-4.354,0l0,-15.207c0,-7.662 -0.871,-10.506 -6.094,-10.506a19.2,19.2 0 0 0 -8.185,2.147c0.522,1.335 0.755,4.992 0.755,8.475l0,15.091l-4.354,0l0,-14.975c0,-8.01 -0.812,-10.738 -6.094,-10.738a17.37,17.37 0 0 0 -7.779,2.147l0,23.566l-4.352,0z" class="cls-2"/>
  <path id="svg_50" fill="#442b75" d="m234.99,16.282l13.442,0l0,120.785l-13.442,0l0,-120.785z" class="cls-1"/>
  <path id="svg_51" fill="#442b75" d="m269.044,137.067l0,-87.267l12.915,0l0,6.11s14.138,-7.854 27.055,-7.854c24.086,0 29.5,11.867 29.5,42.938l0,46.077l-12.914,0l0,-45.733c0,-23.039 -2.622,-31.593 -18.857,-31.593c-12.563,0 -24.608,6.46 -24.608,6.46l0,70.862l-13.091,0z" class="cls-1"/>
  <path id="svg_52" fill="#442b75" d="m417.422,62.538s-19.379,-2.793 -30.551,-2.793c-10.82,0 -19.023,2.967 -19.023,13.266c0,8.206 4.189,10.473 22.69,13.616c21.821,3.663 30.024,8.03 30.024,24.961c0,20.423 -12.914,27.226 -33.867,27.226c-11.167,0 -30.719,-3.312 -30.719,-3.312l0.7,-11.347s19.9,2.966 28.8,2.966c14.312,0 21.992,-3.142 21.992,-15.012c0,-9.076 -4.54,-11.346 -23.563,-14.31c-19.728,-3.142 -29.151,-6.809 -29.151,-24.261c0,-19.2 15.536,-25.486 31.417,-25.486c13.092,0 31.6,3.314 31.6,3.314l-0.349,11.172z" class="cls-1"/>
  <path id="svg_53" fill="#442b75" d="m434.018,14.888l13.088,0l0,15.185l-13.088,0l0,-15.185zm0,34.908l13.088,0l0,87.271l-13.088,0l0,-87.271z" class="cls-1"/>
  <path id="svg_54" fill="#442b75" d="m555.349,137.067l0,-125.325l13.092,0l0,42.944s13.959,-6.634 26.875,-6.634c23.915,0 29.5,11.867 29.5,42.938l0,46.077l-13.09,0l0,-45.729c0,-23.039 -2.618,-31.593 -18.677,-31.593c-12.39,0 -24.608,5.239 -24.608,5.239l0,72.083l-13.092,0z" class="cls-1"/>
  <path id="svg_55" fill="#442b75" d="m659.4,61.142l0,41.715c0,19.031 1.22,24.438 12.566,24.438c4.889,0 15.538,-1.047 15.538,-1.047l0.874,10.819s-11.7,1.924 -17.806,1.924c-17.981,0 -24.09,-6.807 -24.09,-31.942l0,-45.907l-12.39,0l0,-11.342l12.39,0l0,-26.712l12.918,0l0,26.712l27.755,0l0,11.342l-27.755,0z" class="cls-1"/>
  <path id="svg_56" fill="#442b75" d="m761.167,62.538s-19.38,-2.793 -30.552,-2.793c-10.819,0 -19.023,2.967 -19.023,13.266c0,8.206 4.189,10.473 22.692,13.616c21.816,3.663 30.016,8.03 30.016,24.961c0,20.423 -12.914,27.226 -33.862,27.226c-11.169,0 -30.719,-3.312 -30.719,-3.312l0.7,-11.347s19.9,2.966 28.8,2.966c14.307,0 21.992,-3.142 21.992,-15.012c0,-9.076 -4.54,-11.346 -23.562,-14.31c-19.724,-3.142 -29.149,-6.809 -29.149,-24.261c0,-19.2 15.535,-25.486 31.418,-25.486c13.092,0 31.6,3.314 31.6,3.314l-0.351,11.172z" class="cls-1"/>
  <path id="svg_57" fill="#442b75" d="m548.56,50.235l-38.246,0.085a90.393,90.393 0 0 0 -18.159,-2.268c-19.368,0 -32.635,8.377 -32.635,29.848c0,16.057 6.457,23.037 13.789,26.356c0,0 -5.662,5.16 -5.662,15.341a24.172,24.172 0 0 0 5.662,15.341c-7.332,3.32 -13.789,10.3 -13.789,26.359c0,21.469 13.267,29.847 32.635,29.847a90.281,90.281 0 0 0 18.159,-2.271l120.883,0.089l-111.634,-10.212c3.318,-3.314 5.758,-8.2 5.758,-17.453c0,-22.694 -11.343,-29.5 -33.688,-29.5a72.743,72.743 0 0 0 -8.55,0.7a18.358,18.358 0 0 1 0,-25.8a73.379,73.379 0 0 0 8.55,0.7c22.345,0 33.688,-6.8 33.688,-29.5c0,-9.255 -2.44,-14.138 -5.758,-17.455l29,-0.279l-0.003,-9.928zm-56.4,92.035c14.667,0 20.076,5.236 20.076,19.027s-5.409,19.2 -20.076,19.2c-13.612,0 -19.544,-5.413 -19.544,-19.2s5.927,-19.027 19.539,-19.027l0.005,0zm0,-45.346c-13.612,0 -19.544,-5.235 -19.544,-19.024s5.932,-19.2 19.544,-19.2c14.667,0 20.076,5.414 20.076,19.2s-5.414,19.024 -20.081,19.024l0.005,0z" class="cls-2"/>
 </g>
</svg>