<svg xmlns="http://www.w3.org/2000/svg" style="isolation:isolate" width="470.695" height="54.42"><defs><clipPath id="a"><path d="M0 0h470.695v54.42H0z"/></clipPath></defs><g clip-path="url(#a)" fill="#442B75" fill-opacity=".941"><path d="M33.551 11.403c-.366.584-.749 1.024-1.152 1.316-.402.292-.919.438-1.553.438-.56 0-1.164-.176-1.809-.529-.646-.354-1.376-.75-2.193-1.188a18.134 18.134 0 0 0-2.795-1.188c-1.048-.353-2.242-.53-3.582-.53-2.315 0-4.038.494-5.171 1.479-1.134.988-1.7 2.322-1.7 4.003 0 1.073.341 1.961 1.023 2.668.682.707 1.578 1.315 2.686 1.827 1.109.512 2.376.981 3.801 1.408 1.426.426 2.881.901 4.368 1.425a39.077 39.077 0 0 1 4.367 1.846 14.553 14.553 0 0 1 3.802 2.704c1.108 1.096 2.003 2.43 2.686 4.002.681 1.572 1.023 3.466 1.023 5.684 0 2.461-.427 4.763-1.279 6.907a16.186 16.186 0 0 1-3.709 5.609c-1.622 1.597-3.619 2.852-5.995 3.766-2.376.913-5.074 1.37-8.095 1.37-1.657 0-3.344-.171-5.061-.512a29.962 29.962 0 0 1-4.99-1.444 28.88 28.88 0 0 1-4.532-2.211c-1.413-.852-2.644-1.802-3.691-2.85l3.655-5.775a3.669 3.669 0 0 1 1.151-1.042c.475-.279.992-.42 1.553-.42.732 0 1.468.231 2.211.695.743.462 1.584.974 2.523 1.534.937.561 2.015 1.073 3.234 1.535 1.218.464 2.655.695 4.313.695 2.241 0 3.983-.493 5.226-1.48 1.243-.987 1.864-2.552 1.864-4.697 0-1.242-.342-2.253-1.024-3.033-.682-.779-1.578-1.425-2.686-1.936-1.109-.512-2.369-.963-3.783-1.354a112.517 112.517 0 0 1-4.349-1.296 31.74 31.74 0 0 1-4.349-1.756 13.703 13.703 0 0 1-3.783-2.74c-1.109-1.133-2.004-2.546-2.686-4.24-.682-1.692-1.023-3.783-1.023-6.268 0-1.997.401-3.947 1.206-5.847.804-1.9 1.985-3.594 3.544-5.081 1.56-1.486 3.473-2.673 5.739-3.563C14.802.445 17.396 0 20.32 0c1.633 0 3.222.128 4.77.384a25.05 25.05 0 0 1 4.404 1.133 24.079 24.079 0 0 1 3.892 1.791 17.918 17.918 0 0 1 3.235 2.357l-3.07 5.738m53.213 0c-.366.584-.749 1.024-1.151 1.316-.403.292-.92.438-1.554.438-.561 0-1.164-.176-1.809-.529-.646-.354-1.376-.75-2.193-1.188a18.176 18.176 0 0 0-2.795-1.188c-1.048-.353-2.243-.53-3.582-.53-2.315 0-4.039.494-5.172 1.479-1.133.988-1.7 2.322-1.7 4.003 0 1.073.341 1.961 1.024 2.668.682.707 1.577 1.315 2.686 1.827s2.376.981 3.801 1.408c1.426.426 2.882.901 4.368 1.425a39.077 39.077 0 0 1 4.367 1.846 14.553 14.553 0 0 1 3.802 2.704c1.108 1.096 2.003 2.43 2.686 4.002.681 1.572 1.023 3.466 1.023 5.684 0 2.461-.427 4.763-1.279 6.907a16.174 16.174 0 0 1-3.71 5.609c-1.621 1.597-3.618 2.852-5.994 3.766-2.376.913-5.074 1.37-8.095 1.37a25.96 25.96 0 0 1-5.062-.512 29.978 29.978 0 0 1-4.989-1.444 28.88 28.88 0 0 1-4.532-2.211c-1.413-.852-2.644-1.802-3.691-2.85l3.655-5.775a3.669 3.669 0 0 1 1.151-1.042c.475-.279.992-.42 1.553-.42.731 0 1.468.231 2.211.695.743.462 1.584.974 2.522 1.534.938.561 2.016 1.073 3.235 1.535 1.218.464 2.655.695 4.312.695 2.242 0 3.984-.493 5.227-1.48 1.242-.987 1.864-2.552 1.864-4.697 0-1.242-.342-2.253-1.024-3.033-.682-.779-1.578-1.425-2.686-1.936-1.109-.512-2.369-.963-3.782-1.354a110.997 110.997 0 0 1-4.35-1.296 31.74 31.74 0 0 1-4.349-1.756 13.703 13.703 0 0 1-3.783-2.74c-1.109-1.133-2.004-2.546-2.687-4.24-.681-1.692-1.022-3.783-1.022-6.268 0-1.997.401-3.947 1.206-5.847.803-1.9 1.985-3.594 3.544-5.081 1.56-1.486 3.473-2.673 5.738-3.563C68.015.445 70.609 0 73.533 0c1.632 0 3.222.128 4.77.384 1.548.255 3.015.634 4.404 1.133a24.079 24.079 0 0 1 3.892 1.791 17.918 17.918 0 0 1 3.235 2.357l-3.07 5.738zm59.463 15.789c0-2.632-.342-5.007-1.024-7.127-.682-2.12-1.663-3.917-2.942-5.391-1.28-1.474-2.845-2.607-4.697-3.399-1.851-.791-3.959-1.188-6.322-1.188h-8.26v34.246h8.26c2.363 0 4.471-.397 6.322-1.188 1.852-.792 3.417-1.924 4.697-3.4 1.279-1.474 2.26-3.271 2.942-5.39.682-2.12 1.024-4.507 1.024-7.163zm12.645 0c0 3.85-.664 7.401-1.992 10.654-1.328 3.252-3.197 6.066-5.609 8.443-2.412 2.374-5.319 4.227-8.718 5.554-3.398 1.328-7.169 1.992-11.311 1.992h-20.687V.584h20.687c4.142 0 7.913.671 11.311 2.011 3.399 1.34 6.306 3.192 8.718 5.556 2.412 2.362 4.281 5.17 5.609 8.424 1.328 3.253 1.992 6.792 1.992 10.617m25.163-24.944c.182.085.382.274.602.566l33.515 44.808a21.346 21.346 0 0 1-.109-2.12V2.12h3.252v51.715h-1.754c-.317 0-.58-.054-.786-.164-.207-.111-.408-.298-.603-.566L184.564 8.26c.073.731.109 1.413.109 2.047v43.528h-3.288V2.12h1.864c.34 0 .603.042.786.128m107.322 25.711c0-3.606-.5-6.847-1.498-9.722-1-2.875-2.414-5.312-4.24-7.309-1.828-1.998-4.02-3.527-6.579-4.587-2.557-1.06-5.384-1.59-8.479-1.59-3.07 0-5.884.53-8.442 1.59-2.559 1.06-4.758 2.589-6.598 4.587-1.84 1.997-3.265 4.434-4.276 7.309-1.01 2.875-1.517 6.116-1.517 9.722 0 3.632.507 6.877 1.517 9.741 1.011 2.863 2.436 5.293 4.276 7.29 1.84 1.999 4.039 3.522 6.598 4.569 2.558 1.048 5.372 1.572 8.442 1.572 3.095 0 5.922-.524 8.479-1.572 2.559-1.047 4.751-2.57 6.579-4.569 1.826-1.997 3.24-4.427 4.24-7.29.998-2.864 1.498-6.109 1.498-9.741zm3.874 0c0 3.996-.598 7.621-1.79 10.874-1.194 3.252-2.877 6.029-5.045 8.332-2.169 2.303-4.769 4.082-7.803 5.336-3.033 1.255-6.377 1.882-10.032 1.882-3.654 0-6.993-.627-10.014-1.882-3.022-1.254-5.616-3.033-7.784-5.336-2.17-2.303-3.851-5.08-5.044-8.332-1.194-3.253-1.791-6.878-1.791-10.874 0-3.971.597-7.584 1.791-10.836 1.193-3.253 2.874-6.031 5.044-8.333 2.168-2.303 4.762-4.087 7.784-5.355 3.021-1.266 6.36-1.9 10.014-1.9 3.655 0 6.999.627 10.032 1.882 3.034 1.255 5.634 3.04 7.803 5.354 2.168 2.315 3.851 5.099 5.045 8.352 1.192 3.252 1.79 6.865 1.79 10.836m64.324 0c0-3.606-.5-6.822-1.499-9.649-1-2.826-2.412-5.213-4.24-7.163-1.827-1.949-4.02-3.436-6.579-4.459-2.558-1.023-5.385-1.535-8.478-1.535h-15.132v45.648h15.132c3.093 0 5.92-.511 8.478-1.535 2.559-1.023 4.752-2.509 6.579-4.458 1.828-1.95 3.24-4.337 4.24-7.164.999-2.826 1.499-6.053 1.499-9.685zm3.874 0c0 3.996-.597 7.59-1.792 10.783-1.193 3.191-2.874 5.907-5.042 8.149-2.17 2.242-4.77 3.96-7.804 5.154-3.034 1.194-6.378 1.79-10.032 1.79h-18.896V2.12h18.896c3.654 0 6.998.597 10.032 1.791s5.634 2.911 7.804 5.152c2.168 2.243 3.849 4.96 5.042 8.151 1.195 3.192 1.792 6.774 1.792 10.745zM419.127 2.12v3.107h-27.23v20.905h22.66v3.034h-22.66v21.563H419.2l-.073 3.106h-30.994V2.12h30.994zm49.229 6.286c-.22.415-.536.621-.951.621-.316 0-.725-.225-1.224-.676-.5-.45-1.176-.95-2.028-1.498-.853-.548-1.92-1.054-3.198-1.517-1.28-.463-2.856-.694-4.732-.694-1.878 0-3.528.268-4.952.804-1.427.536-2.62 1.267-3.583 2.193a9.296 9.296 0 0 0-2.192 3.216 10.011 10.011 0 0 0-.751 3.837c0 1.754.371 3.204 1.115 4.35.744 1.144 1.724 2.119 2.943 2.924 1.217.803 2.6 1.479 4.148 2.028 1.548.548 3.137 1.09 4.77 1.626a65.867 65.867 0 0 1 4.77 1.772c1.546.647 2.929 1.457 4.146 2.431a11.149 11.149 0 0 1 2.943 3.601c.744 1.424 1.115 3.198 1.115 5.318 0 2.167-.371 4.208-1.115 6.12a14.283 14.283 0 0 1-3.235 4.989c-1.413 1.414-3.142 2.529-5.189 3.345-2.047.816-4.385 1.224-7.017 1.224-3.412 0-6.348-.603-8.808-1.809a20.74 20.74 0 0 1-6.47-4.953l1.024-1.608c.292-.365.632-.548 1.023-.548.219 0 .499.147.841.439.34.293.754.652 1.243 1.078.487.427 1.071.889 1.753 1.389.683.5 1.475.962 2.376 1.388.902.427 1.936.787 3.107 1.078 1.169.293 2.496.439 3.984.439 2.047 0 3.873-.31 5.481-.932 1.608-.621 2.967-1.468 4.076-2.539a10.787 10.787 0 0 0 2.54-3.819c.584-1.474.878-3.052.878-4.733 0-1.829-.372-3.332-1.116-4.515a9.627 9.627 0 0 0-2.942-2.961c-1.218-.79-2.601-1.454-4.148-1.991a165.9 165.9 0 0 0-4.769-1.571 59.394 59.394 0 0 1-4.769-1.718 16.4 16.4 0 0 1-4.15-2.431c-1.218-.986-2.198-2.217-2.941-3.691-.743-1.474-1.115-3.32-1.115-5.537 0-1.73.328-3.4.986-5.007a12.492 12.492 0 0 1 2.888-4.258c1.268-1.23 2.833-2.217 4.697-2.961 1.863-.742 3.989-1.114 6.377-1.114 2.68 0 5.087.426 7.218 1.279 2.133.853 4.076 2.157 5.829 3.91l-.876 1.682"/></g></svg>