<svg width="113" height="50" viewBox="0 0 113 50" fill="none" xmlns="http://www.w3.org/2000/svg">
<path d="M20.9987 30.8151L15.3338 30.3745C15.4002 29.4439 15.6044 27.8379 16.9388 25.3705C18.6069 22.2862 20.9987 21.2791 22.3835 21.0273C24.6739 20.6109 25.9713 20.8699 28.0485 21.877C30.3774 23.4507 31.5112 24.3237 33.1155 24.7095C35.6018 25.3075 36.9026 22.8946 37.1125 21.405L42.6201 21.877C42.3683 23.1674 42.2424 24.804 40.2597 28.0141C36.546 32.3258 33.4302 31.3187 30.6292 30.3745C28.0485 29.0212 26.8983 27.487 24.4922 27.1958C22.6353 26.9711 21.3134 29.5142 20.9987 30.8151Z" fill="#442B75" stroke="#442B75"/>
<path d="M60.2031 26.3551V20.0909H63.2287V31H60.3239V29.0185H60.2102C59.964 29.6577 59.5545 30.1714 58.9815 30.5597C58.4134 30.9479 57.7197 31.142 56.9006 31.142C56.1714 31.142 55.5298 30.9763 54.9759 30.6449C54.4219 30.3134 53.9886 29.8423 53.6761 29.2315C53.3684 28.6207 53.2121 27.8892 53.2074 27.0369V20.0909H56.233V26.4972C56.2377 27.1411 56.4105 27.6501 56.7514 28.0241C57.0923 28.3982 57.5492 28.5852 58.1222 28.5852C58.4867 28.5852 58.8277 28.5024 59.1449 28.3366C59.4621 28.1662 59.7178 27.9152 59.9119 27.5838C60.1108 27.2524 60.2079 26.8428 60.2031 26.3551ZM65.6488 31V20.0909H68.582V21.9943H68.6957C68.8945 21.3172 69.2283 20.8059 69.6971 20.4602C70.1658 20.1098 70.7056 19.9347 71.3164 19.9347C71.4679 19.9347 71.6313 19.9441 71.8065 19.9631C71.9817 19.982 72.1355 20.008 72.2681 20.0412V22.7259C72.1261 22.6832 71.9296 22.6454 71.6786 22.6122C71.4277 22.5791 71.198 22.5625 70.9897 22.5625C70.5446 22.5625 70.1469 22.6596 69.7965 22.8537C69.4509 23.0431 69.1763 23.3082 68.9727 23.6491C68.7738 23.9901 68.6744 24.383 68.6744 24.8281V31H65.6488ZM73.8892 31V16.4545H76.9148V21.9233H77.0071C77.1397 21.6297 77.3314 21.3314 77.5824 21.0284C77.8381 20.7206 78.1695 20.465 78.5767 20.2614C78.9886 20.053 79.5 19.9489 80.1108 19.9489C80.9063 19.9489 81.6402 20.1572 82.3125 20.5739C82.9848 20.9858 83.5223 21.6084 83.9247 22.4418C84.3272 23.2704 84.5284 24.3097 84.5284 25.5597C84.5284 26.7765 84.3319 27.804 83.9389 28.642C83.5507 29.4754 83.0204 30.1075 82.348 30.5384C81.6804 30.9645 80.9323 31.1776 80.1037 31.1776C79.5166 31.1776 79.017 31.0805 78.6051 30.8864C78.1979 30.6922 77.8641 30.4484 77.6037 30.1548C77.3433 29.8565 77.1444 29.5559 77.0071 29.2528H76.8722V31H73.8892ZM76.8509 25.5455C76.8509 26.1941 76.9408 26.7599 77.1207 27.2429C77.3007 27.7259 77.5611 28.1023 77.902 28.3722C78.2429 28.6373 78.6572 28.7699 79.1449 28.7699C79.6373 28.7699 80.054 28.6349 80.3949 28.3651C80.7358 28.0904 80.9938 27.7116 81.169 27.2287C81.349 26.741 81.4389 26.1799 81.4389 25.5455C81.4389 24.9157 81.3513 24.3617 81.1761 23.8835C81.0009 23.4053 80.7429 23.0312 80.402 22.7614C80.0611 22.4915 79.642 22.3565 79.1449 22.3565C78.6525 22.3565 78.2358 22.4867 77.8949 22.7472C77.5587 23.0076 77.3007 23.3769 77.1207 23.8551C76.9408 24.3333 76.8509 24.8968 76.8509 25.5455ZM86.5472 31V20.0909H89.5728V31H86.5472ZM88.0671 18.6847C87.6173 18.6847 87.2314 18.5355 86.9094 18.2372C86.5922 17.9342 86.4336 17.572 86.4336 17.1506C86.4336 16.7339 86.5922 16.3764 86.9094 16.0781C87.2314 15.7751 87.6173 15.6236 88.0671 15.6236C88.5169 15.6236 88.9004 15.7751 89.2177 16.0781C89.5397 16.3764 89.7006 16.7339 89.7006 17.1506C89.7006 17.572 89.5397 17.9342 89.2177 18.2372C88.9004 18.5355 88.5169 18.6847 88.0671 18.6847ZM97.799 20.0909V22.3636H91.2294V20.0909H97.799ZM92.7209 17.4773H95.7464V27.6477C95.7464 27.9271 95.7891 28.1449 95.8743 28.3011C95.9595 28.4527 96.0779 28.5592 96.2294 28.6207C96.3857 28.6823 96.5656 28.7131 96.7692 28.7131C96.9112 28.7131 97.0533 28.7012 97.1953 28.6776C97.3374 28.6491 97.4463 28.6278 97.522 28.6136L97.9979 30.8651C97.8464 30.9124 97.6333 30.9669 97.3587 31.0284C97.084 31.0947 96.7502 31.1349 96.3572 31.1491C95.6281 31.1776 94.9889 31.0805 94.4396 30.858C93.8951 30.6354 93.4714 30.2898 93.1683 29.821C92.8653 29.3523 92.7161 28.7604 92.7209 28.0455V17.4773Z" fill="#442B75"/>
</svg>
